<svg width="20" height="22" viewBox="0 0 20 22" fill="none" xmlns="http://www.w3.org/2000/svg">
<path d="M12.4665 15.3501L11.939 19.7176C11.8947 19.9569 12.0114 20.1971 12.227 20.3101C12.4425 20.4232 12.7065 20.3826 12.8782 20.2101L14.3973 18.6917L15.9165 20.2101C16.0884 20.3821 16.3522 20.4224 16.5676 20.3095C16.783 20.1966 16.9001 19.9568 16.8565 19.7176L16.3223 15.3201" stroke="#009B27" stroke-width="1.5" stroke-linecap="round" stroke-linejoin="round"/>
<path fill-rule="evenodd" clip-rule="evenodd" d="M14.375 16C16.1009 16 17.5 14.6009 17.5 12.875C17.5 11.1491 16.1009 9.75 14.375 9.75C12.6491 9.75 11.25 11.1491 11.25 12.875C11.25 14.6009 12.6491 16 14.375 16Z" stroke="#009B27" stroke-width="1.5" stroke-linecap="round" stroke-linejoin="round"/>
<path d="M8.75 17.875H3.75C3.05964 17.875 2.5 17.3154 2.5 16.625V2.875C2.5 2.18464 3.05964 1.625 3.75 1.625H12.6075C12.9388 1.62507 13.2565 1.75665 13.4908 1.99083L15.8842 4.38417C16.1183 4.6185 16.2499 4.93621 16.25 5.2675V7.875" stroke="#009B27" stroke-width="1.5" stroke-linecap="round" stroke-linejoin="round"/>
</svg>
