<svg width="16" height="16" viewBox="0 0 16 16" fill="none" xmlns="http://www.w3.org/2000/svg">
<path fill-rule="evenodd" clip-rule="evenodd" d="M13.6109 8.00003C13.6109 11.099 11.0987 13.6111 7.99978 13.6111C4.90085 13.6111 2.38867 11.099 2.38867 8.00003C2.38867 4.9011 4.90085 2.38892 7.99978 2.38892C11.0987 2.38892 13.6109 4.9011 13.6109 8.00003ZM15.1109 8.00003C15.1109 11.9274 11.9271 15.1111 7.99978 15.1111C4.07242 15.1111 0.888672 11.9274 0.888672 8.00003C0.888672 4.07267 4.07242 0.888916 7.99978 0.888916C11.9271 0.888916 15.1109 4.07267 15.1109 8.00003ZM8.74978 4.44447C8.74978 4.03026 8.414 3.69447 7.99978 3.69447C7.58557 3.69447 7.24978 4.03026 7.24978 4.44447V8.20516C7.24978 8.54762 7.48177 8.84659 7.8135 8.93165L10.4802 9.61541C10.8814 9.71829 11.2901 9.47643 11.3929 9.0752C11.4958 8.67396 11.254 8.2653 10.8527 8.16242L8.74978 7.6232V4.44447Z" fill="black"/>
</svg>
