<svg width="19" height="18" viewBox="0 0 19 18" fill="none" xmlns="http://www.w3.org/2000/svg">
<path fill-rule="evenodd" clip-rule="evenodd" d="M9.125 10.9498V7.0505L11.2317 8.99975L9.125 10.9498ZM9.75425 5.58947C9.38075 5.24297 8.8355 5.15297 8.366 5.35922C7.9085 5.55872 7.625 5.98547 7.625 6.47222V11.528C7.625 12.0147 7.9085 12.4415 8.366 12.641C8.53325 12.7145 8.711 12.7497 8.88575 12.7497C9.203 12.7497 9.51425 12.6335 9.7535 12.4115L12.485 9.88397C12.7332 9.65447 12.875 9.33272 12.875 8.99972C12.875 8.66747 12.7332 8.34497 12.485 8.11622L9.75425 5.58947ZM9.5 15C6.19175 15 3.5 12.3083 3.5 9.00002C3.5 5.69177 6.19175 3.00002 9.5 3.00002C12.8082 3.00002 15.5 5.69177 15.5 9.00002C15.5 12.3083 12.8082 15 9.5 15ZM9.5 1.5C5.3645 1.5 2 4.8645 2 9C2 13.1355 5.3645 16.5 9.5 16.5C13.6355 16.5 17 13.1355 17 9C17 4.8645 13.6355 1.5 9.5 1.5Z" fill="black"/>
</svg>
