<svg width="24" height="24" viewBox="0 0 24 24" fill="none" xmlns="http://www.w3.org/2000/svg">
<path d="M12 18C11.3885 18 11.0828 17.676 11.0828 17.028V9.07574H8.28822C7.76274 9.07574 7.5 8.81066 7.5 8.28051C7.5 7.76017 7.76274 7.5 8.28822 7.5H15.7118C16.2373 7.5 16.5 7.76017 16.5 8.28051C16.5 8.81066 16.2373 9.07574 15.7118 9.07574H12.9172V17.028C12.9172 17.676 12.6115 18 12 18Z" fill="black"/>
<path d="M12 1.14946L16.72 3.82476L21.3968 6.57473L21.44 12L21.3968 17.4253L16.7199 20.1753L12 22.8505L7.28007 20.1753L2.60316 17.4253L2.56003 12L2.60316 6.57473L7.28003 3.82474L12 1.14946Z" stroke="black" stroke-width="2" stroke-linecap="round" stroke-linejoin="round"/>
</svg>
