<svg width="19" height="18" viewBox="0 0 19 18" fill="none" xmlns="http://www.w3.org/2000/svg">
<path fill-rule="evenodd" clip-rule="evenodd" d="M4.93569 3.74994H13.9327C15.4169 3.74994 16.6252 4.93719 16.6252 6.39669V8.24994C16.6252 8.66469 16.2899 8.99994 15.8752 8.99994C15.4604 8.99994 15.1252 8.66469 15.1252 8.24994V6.39669C15.1252 5.76519 14.5904 5.24994 13.9327 5.24994H4.93569L5.90544 6.21969C6.19794 6.51294 6.19794 6.98694 5.90544 7.28019C5.75919 7.42644 5.56719 7.49994 5.37519 7.49994C5.18319 7.49994 4.99119 7.42644 4.84494 7.28019L2.59494 5.03019C2.30169 4.73694 2.30169 4.26294 2.59494 3.96969L4.84494 1.71969C5.13744 1.42644 5.61219 1.42644 5.90544 1.71969C6.19794 2.01294 6.19794 2.48694 5.90544 2.78019L4.93569 3.74994ZM13.0948 10.7197C13.388 10.4264 13.862 10.4264 14.1553 10.7197L16.4053 12.9697C16.6985 13.2629 16.6985 13.7369 16.4053 14.0302L14.1553 16.2802C14.009 16.4264 13.817 16.4999 13.625 16.4999C13.433 16.4999 13.241 16.4264 13.0948 16.2802C12.8015 15.9869 12.8015 15.5129 13.0948 15.2197L14.0645 14.2499H5.06754C3.58254 14.2499 2.37504 13.0627 2.37504 11.6032V9.74991C2.37504 9.33516 2.71104 8.99991 3.12504 8.99991C3.53904 8.99991 3.87504 9.33516 3.87504 9.74991V11.6032C3.87504 12.2354 4.40979 12.7499 5.06754 12.7499H14.0645L13.0948 11.7802C12.8015 11.4869 12.8015 11.0129 13.0948 10.7197Z" fill="black"/>
</svg>
