<svg width="18" height="18" viewBox="0 0 18 18" fill="none" xmlns="http://www.w3.org/2000/svg">
<path fill-rule="evenodd" clip-rule="evenodd" d="M4.5 1.5C4.08579 1.5 3.75 1.83579 3.75 2.25V3.02658C2.47789 3.20854 1.5 4.30257 1.5 5.625C1.5 6.94743 2.47789 8.04146 3.75 8.22342V8.37688C3.75 8.80285 3.93111 9.20873 4.24814 9.49324L6.93768 11.9069L6.16442 15H5.25C4.83579 15 4.5 15.3358 4.5 15.75C4.5 16.1642 4.83579 16.5 5.25 16.5H12.75C13.1642 16.5 13.5 16.1642 13.5 15.75C13.5 15.3358 13.1642 15 12.75 15H11.8356L11.0623 11.9069L13.7519 9.49324C14.0689 9.20873 14.25 8.80285 14.25 8.37688V8.22342C15.5221 8.04146 16.5 6.94743 16.5 5.625C16.5 4.30257 15.5221 3.20854 14.25 3.02658V2.25C14.25 1.83579 13.9142 1.5 13.5 1.5H4.5ZM5.25 7.5V8.37688L8.49907 11.2927C8.78405 11.5485 9.21595 11.5485 9.50093 11.2927L12.75 8.37688V7.5V3.75V3H5.25V3.75V7.5ZM3.75 4.56401V6.68599C3.31305 6.53155 3 6.11483 3 5.625C3 5.13517 3.31305 4.71845 3.75 4.56401ZM15 5.625C15 6.11483 14.6869 6.53155 14.25 6.68599V4.56401C14.6869 4.71845 15 5.13517 15 5.625ZM10.2894 15L9.75319 12.8551C9.26673 13.0277 8.73327 13.0277 8.24681 12.8551L7.71058 15H10.2894Z" fill="black"/>
</svg>
