<svg width="19" height="18" viewBox="0 0 19 18" fill="none" xmlns="http://www.w3.org/2000/svg">
<path fill-rule="evenodd" clip-rule="evenodd" d="M14.2825 15.4648C14.6765 15.8519 15.3152 15.8519 15.7092 15.4648C16.1031 15.0777 16.1031 14.4502 15.7092 14.0631L10.5509 8.99516L15.6997 3.93279C16.0935 3.54558 16.0935 2.9178 15.6997 2.53059C15.3059 2.14339 14.6674 2.14339 14.2736 2.53059L9.12424 7.59348L3.72656 2.2903C3.33261 1.90323 2.69388 1.90323 2.29992 2.2903C1.90596 2.67736 1.90596 3.30491 2.29992 3.69197L7.69812 8.99567L2.29536 14.3077C1.90155 14.695 1.90155 15.3227 2.29536 15.7099C2.68918 16.0971 3.32768 16.0971 3.72149 15.7099L9.12477 10.3973L14.2825 15.4648Z" fill="#000000"/>
</svg>
