<svg width="18" height="18" viewBox="0 0 18 18" fill="none" xmlns="http://www.w3.org/2000/svg">
<path fill-rule="evenodd" clip-rule="evenodd" d="M8 5.72117C8 5.16917 8.448 4.72117 9 4.72117C9.552 4.72117 10 5.16917 10 5.72117C10 6.27317 9.552 6.72117 9 6.72117C8.448 6.72117 8 6.27317 8 5.72117ZM8 8.13642C8 7.66328 8.448 7.27927 9 7.27927C9.552 7.27927 10 7.66328 10 8.13642V12.4221C10 12.8953 9.552 13.2793 9 13.2793C8.448 13.2793 8 12.8953 8 12.4221V8.13642ZM9 15C5.69175 15 3 12.3082 3 9C3 5.69175 5.69175 3 9 3C12.3082 3 15 5.69175 15 9C15 12.3082 12.3082 15 9 15ZM9 1.5C4.85775 1.5 1.5 4.85775 1.5 9C1.5 13.1423 4.85775 16.5 9 16.5C13.1415 16.5 16.5 13.1423 16.5 9C16.5 4.85775 13.1415 1.5 9 1.5Z" fill="#009B27"/>
</svg>
