<svg width="24" height="24" viewBox="0 0 24 24" fill="none" xmlns="http://www.w3.org/2000/svg">
<g opacity="0.5">
<path d="M12.0449 0C18.6067 0 24 5.39326 24 12.0449C24 18.6067 18.6067 24 12.0449 24C5.39326 24 0 18.6067 0 12.0449C0 5.39326 5.39326 0 12.0449 0ZM12.0449 1.79775C6.38202 1.79775 1.79775 6.38202 1.79775 12.0449C1.79775 17.618 6.38202 22.2022 12.0449 22.2022C17.618 22.2022 22.2022 17.618 22.2022 12.0449C22.2022 6.38202 17.618 1.79775 12.0449 1.79775Z" fill="white"/>
<path d="M10.9747 14.9363C10.9747 14.2257 11.062 13.6424 11.2366 13.1866C11.4256 12.7173 11.6584 12.3218 11.9347 12C12.2111 11.6782 12.502 11.4033 12.8075 11.1754C13.1275 10.9475 13.4257 10.7195 13.702 10.4916C13.9784 10.2503 14.2038 9.98881 14.3784 9.70725C14.5675 9.41228 14.662 9.03686 14.662 8.58099C14.662 8.00446 14.4438 7.53518 14.0075 7.17317C13.5711 6.79775 12.9384 6.61004 12.1093 6.61004C11.2075 6.61004 10.5311 6.80446 10.0802 7.19328C9.64383 7.58211 9.39656 8.14524 9.33838 8.88267H7.2002C7.22929 8.27932 7.3602 7.7296 7.59292 7.23351C7.82565 6.72401 8.14565 6.28826 8.55292 5.92624C8.9602 5.56423 9.45474 5.28937 10.0366 5.10166C10.6184 4.90055 11.2729 4.79999 12.0002 4.79999C12.7711 4.79999 13.4547 4.89384 14.0511 5.08155C14.6475 5.26926 15.1493 5.53071 15.5566 5.86591C15.9638 6.1877 16.2693 6.57652 16.4729 7.03239C16.6911 7.47485 16.8002 7.95753 16.8002 8.48043C16.8002 9.09719 16.7056 9.60669 16.5166 10.0089C16.3275 10.4112 16.0947 10.7598 15.8184 11.0547C15.542 11.3497 15.2366 11.6179 14.902 11.8592C14.582 12.0871 14.2838 12.3419 14.0075 12.6235C13.7311 12.8916 13.4984 13.2067 13.3093 13.5687C13.1202 13.9307 13.0257 14.3866 13.0257 14.9363H10.9747ZM12.0002 19.2C11.5493 19.2 11.1784 19.0659 10.8875 18.7978C10.6111 18.5162 10.4729 18.181 10.4729 17.7922C10.4729 17.4033 10.6111 17.0748 10.8875 16.8067C11.1784 16.5251 11.5493 16.3843 12.0002 16.3843C12.4511 16.3843 12.8147 16.5251 13.0911 16.8067C13.382 17.0748 13.5275 17.4033 13.5275 17.7922C13.5275 18.181 13.382 18.5162 13.0911 18.7978C12.8147 19.0659 12.4511 19.2 12.0002 19.2Z" fill="white"/>
</g>
</svg>
