<svg width="24" height="24" viewBox="0 0 24 24" fill="none" xmlns="http://www.w3.org/2000/svg">
<g clip-path="url(#clip0_7469_51450)">
<path fill-rule="evenodd" clip-rule="evenodd" d="M12 7C9.243 7 7 9.243 7 12C7 13.579 7.753 15.062 9 15.996V20C9 21.103 9.897 22 11 22H13C14.103 22 15 21.103 15 20V15.996C16.246 15.062 17 13.579 17 12C17 9.243 14.757 7 12 7Z" fill="#FFC800"/>
<path fill-rule="evenodd" clip-rule="evenodd" d="M12 6C12.552 6 13 5.553 13 5V3C13 2.447 12.552 2 12 2C11.448 2 11 2.447 11 3V5C11 5.553 11.448 6 12 6Z" fill="#CD7900"/>
<path fill-rule="evenodd" clip-rule="evenodd" d="M21 11H19C18.447 11 18 11.447 18 12C18 12.553 18.447 13 19 13H21C21.553 13 22 12.553 22 12C22 11.447 21.553 11 21 11Z" fill="#CD7900"/>
<path fill-rule="evenodd" clip-rule="evenodd" d="M5 11H3C2.448 11 2 11.447 2 12C2 12.553 2.448 13 3 13H5C5.552 13 6 12.553 6 12C6 11.447 5.552 11 5 11Z" fill="#CD7900"/>
<path fill-rule="evenodd" clip-rule="evenodd" d="M7.66137 6.41772L6.22237 5.02772C5.82537 4.64472 5.19337 4.65672 4.80837 5.05372C4.42437 5.44972 4.43537 6.08372 4.83237 6.46772L6.27137 7.85672C6.46637 8.04472 6.71637 8.13772 6.96637 8.13772C7.22837 8.13772 7.48937 8.03472 7.68537 7.83172C8.06937 7.43572 8.05837 6.80172 7.66137 6.41772Z" fill="#CD7900"/>
<path fill-rule="evenodd" clip-rule="evenodd" d="M19.1922 5.0533C18.8112 4.6573 18.1752 4.6463 17.7792 5.0293L16.3402 6.4183C15.9432 6.8013 15.9322 7.4353 16.3162 7.8313C16.5112 8.0343 16.7732 8.1373 17.0352 8.1373C17.2852 8.1373 17.5362 8.0433 17.7292 7.8563L19.1682 6.4663C19.5652 6.0833 19.5762 5.4493 19.1922 5.0533Z" fill="#CD7900"/>
</g>
<defs>
<clipPath id="clip0_7469_51450">
<rect width="24" height="24" fill="white"/>
</clipPath>
</defs>
</svg>