<svg width="25" height="24" viewBox="0 0 25 24" fill="none" xmlns="http://www.w3.org/2000/svg">
<path fill-rule="evenodd" clip-rule="evenodd" d="M15.6956 17.7007C16.0826 18.0947 16.7158 18.1004 17.1098 17.7134L22.2007 12.7134C22.3922 12.5254 22.5 12.2683 22.5 12C22.5 11.7317 22.3922 11.4746 22.2007 11.2866L17.1098 6.28655C16.7158 5.89956 16.0826 5.90526 15.6956 6.29929C15.3087 6.69332 15.3144 7.32646 15.7084 7.71345L19.0547 11L3.5 11C2.94772 11 2.5 11.4477 2.5 12C2.5 12.5523 2.94772 13 3.5 13L19.0547 13L15.7084 16.2866C15.3144 16.6735 15.3087 17.3067 15.6956 17.7007Z" fill="#009B27"/>
</svg>
