<svg width="20" height="20" viewBox="0 0 20 20" fill="none" xmlns="http://www.w3.org/2000/svg">
<path fill-rule="evenodd" clip-rule="evenodd" d="M16.1045 17.105C16.4984 17.4921 17.137 17.4921 17.531 17.105C17.9249 16.7179 17.9249 16.0903 17.531 15.7032L11.7234 9.99592L17.523 4.29371C17.9169 3.90651 17.9169 3.27873 17.523 2.89153C17.1292 2.50432 16.4907 2.50432 16.0969 2.89153L10.2969 8.59407L4.0621 2.46697C3.66819 2.07986 3.02953 2.07986 2.63562 2.46697C2.24171 2.85407 2.24171 3.4817 2.63562 3.86881L8.87076 9.99625L2.6313 16.1309C2.23748 16.5181 2.23748 17.1458 2.6313 17.5331C3.02512 17.9203 3.66363 17.9203 4.05745 17.5331L10.2972 11.3981L16.1045 17.105Z" fill="#9A9A9A"/>
</svg>
