<svg width="157" height="79" viewBox="0 0 157 79" fill="none" xmlns="http://www.w3.org/2000/svg">
<g clip-path="url(#clip0)">
<path d="M57.6998 21.77V32.5501H56.4228V21.77H52.9618V20.6326H61.1609V21.77H57.6998Z" fill="black"/>
<path d="M63.3948 32.5521V20.6326H70.8221V21.77H64.6718V25.9711H69.9151V27.1086H64.6718V31.4107H70.8221V32.5482H63.3948V32.5521Z" fill="black"/>
<path d="M80.417 32.5521V21.772H74.7541V32.5521H73.4771V20.6326H81.694V32.5521H80.417Z" fill="black"/>
<path d="M91.809 32.5521V21.772H87.7433V25.8561C87.7433 30.8776 86.5339 32.5521 84.2484 32.5521H83.6437V31.4146H83.9639C85.4418 31.4146 86.502 30.4258 86.502 25.4717V20.6345H93.088V32.5541H91.809V32.5521Z" fill="black"/>
<path d="M103.84 32.5521V22.8262L97.7575 32.5521H96.5481V20.6326H97.8251V30.3406L103.908 20.6326H105.117V32.5521H103.84Z" fill="black"/>
<path d="M116.961 35.4314V32.5521H108.577V20.6326H109.854V31.4127H115.517V20.6326H116.794V31.4127H118.223V35.4294H116.961V35.4314Z" fill="black"/>
<path d="M127.615 32.5521L126.656 29.8571H121.431L120.472 32.5521H119.111L123.513 20.6326H124.589L128.975 32.5521H127.615ZM124.068 22.4577L121.817 28.7513H126.286L124.068 22.4577Z" fill="black"/>
<path d="M55.5641 63.4204V40.469H59.0589V51.3641L67.6658 40.469H71.9702L63.1048 51.3006L72.7798 63.4204H68.3461L59.0589 51.4294V63.4204H55.5641Z" fill="black"/>
<path d="M82.4548 59.6812C81.5477 61.7778 80.0917 63.4206 77.6013 63.4206H75.2064V60.2936H76.8574C78.2498 60.2936 79.0255 59.6812 79.5427 58.4566L80.3523 56.5859L72.8772 40.4673H76.567L82.0669 52.7495L87.0178 40.4673H90.7056L82.4548 59.6812Z" fill="black"/>
<path d="M102.642 54.394H97.4006V63.4204H93.9058V40.469H102.642C107.01 40.469 110.02 43.3067 110.02 47.4325C110.02 51.5583 107.01 54.394 102.642 54.394ZM102.415 43.596H97.4006V51.2689H102.415C104.939 51.2689 106.525 49.7867 106.525 47.4325C106.525 45.0466 104.939 43.596 102.415 43.596Z" fill="black"/>
<path d="M121.7 63.6146C119.305 63.6146 117.235 62.7446 115.649 61.1653C113.384 58.9082 113.418 56.3618 113.418 51.9467C113.418 47.5316 113.386 44.9832 115.649 42.7281C117.235 41.1487 119.305 40.2788 121.7 40.2788C125.939 40.2788 129.11 42.7618 129.919 47.3394H126.361C125.812 45.0189 124.258 43.4058 121.702 43.4058C120.344 43.4058 119.114 43.9211 118.305 44.793C117.173 46.0176 116.914 47.3394 116.914 51.9487C116.914 56.558 117.173 57.8797 118.305 59.1044C119.114 59.9743 120.344 60.4915 121.702 60.4915C124.258 60.4915 125.844 58.8805 126.395 56.558H129.921C129.142 61.1316 125.873 63.6146 121.7 63.6146Z" fill="black"/>
<path d="M143.41 63.4204H134.576V40.469H138.071V49.4954H143.41C147.81 49.4954 150.722 52.3331 150.722 56.4589C150.722 60.5846 147.778 63.4204 143.41 63.4204ZM143.118 52.6204H138.069V60.2933H143.118C145.674 60.2933 147.195 58.8428 147.195 56.4569C147.195 54.1047 145.674 52.6204 143.118 52.6204ZM153.505 63.4204V40.469H156.999V63.4204H153.505Z" fill="black"/>
<path d="M17.6225 47.8389V16.9214H14.1316V47.8389" fill="#E5005B"/>
<path d="M17.6229 47.8389V77.2602C17.6229 78.2213 16.8412 79.0001 15.8764 79.0001C14.9117 79.0001 14.13 78.2213 14.13 77.2602V47.8389H17.6229Z" fill="#213A8F"/>
<path d="M14.1316 16.9212V1.73988C14.1316 0.778784 14.9133 0 15.878 0C16.8427 0 17.6245 0.778784 17.6245 1.73988V16.9232H14.1316V16.9212Z" fill="#FFD500"/>
<path d="M12.1659 47.8646L4.18961 43.2454C2.46506 42.2466 1.16418 39.9955 1.16418 38.0099V27.5766C1.16418 25.589 2.46506 23.3378 4.18961 22.3411L12.16 17.7258L15.5832 19.7669L5.944 25.3472C5.29357 25.7237 4.65705 26.8275 4.65705 27.5766V38.0099C4.65705 38.7589 5.29555 39.8627 5.944 40.2392L15.5772 45.8175" fill="url(#paint0_linear)"/>
<path d="M15.5456 45.8927L25.3101 40.2371C25.9606 39.8606 26.5971 38.7568 26.5971 38.0078V27.5744C26.5971 26.8254 25.9586 25.7216 25.3101 25.3451L15.6212 19.7351L15.5397 15.6648L27.0665 22.339C28.7911 23.3377 30.092 25.5888 30.092 27.5744V38.0078C30.092 39.9954 28.7911 42.2465 27.0665 43.2433L15.4661 49.961L15.5456 45.8927Z" fill="url(#paint1_linear)"/>
<path d="M15.4653 49.9629L4.77982 56.1515C4.12938 56.528 3.49287 57.6318 3.49287 58.3809V71.2992C3.49287 72.2603 2.71115 73.039 1.74643 73.039C0.781718 73.039 0 72.2583 0 71.2972V58.3789C0 56.3933 1.30087 54.1402 3.02344 53.1434L15.5449 45.8926L15.4653 49.9629Z" fill="url(#paint2_linear)"/>
<path d="M15.6197 19.7351L0.868465 11.1923C0.0350306 10.7087 -0.247422 9.64461 0.23593 8.8143C0.721272 7.984 1.78942 7.7026 2.62286 8.18414L15.5381 15.6628L15.6197 19.7351Z" fill="#C8D400"/>
<path d="M12.1587 17.7237L28.6305 8.18414C29.4639 7.7026 30.532 7.984 31.0174 8.8143C31.5007 9.64461 31.2183 10.7087 30.3849 11.1923L15.5819 19.7648L12.1587 17.7237Z" fill="#FFED00"/>
<path d="M15.5763 45.8174L28.229 53.1435C29.9535 54.1422 31.2524 56.3934 31.2524 58.379V71.2973C31.2524 72.2584 30.4707 73.0372 29.506 73.0372C28.5413 73.0372 27.7595 72.2584 27.7595 71.2973V58.379C27.7595 57.6299 27.121 56.5262 26.4726 56.1497L12.163 47.8644L15.5763 45.8174Z" fill="url(#paint3_linear)"/>
</g>
<defs>
<linearGradient id="paint0_linear" x1="2.25521" y1="41.5576" x2="19.7894" y2="23.9573" gradientUnits="userSpaceOnUse">
<stop offset="0.4913" stop-color="#EC6608"/>
<stop offset="0.6029" stop-color="#FFED00"/>
</linearGradient>
<linearGradient id="paint1_linear" x1="8.15121" y1="42.6764" x2="27.861" y2="22.8924" gradientUnits="userSpaceOnUse">
<stop offset="0.4388" stop-color="#007BC4"/>
<stop offset="0.4583" stop-color="#0E82B1"/>
<stop offset="0.4977" stop-color="#349581"/>
<stop offset="0.553" stop-color="#6FB433"/>
<stop offset="0.5592" stop-color="#76B82A"/>
</linearGradient>
<linearGradient id="paint2_linear" x1="-3.16717" y1="68.8626" x2="17.6386" y2="47.9784" gradientUnits="userSpaceOnUse">
<stop offset="0.4927" stop-color="#009FE3"/>
<stop offset="0.6029" stop-color="#007BC4"/>
</linearGradient>
<linearGradient id="paint3_linear" x1="12.7541" y1="47.2777" x2="34.3388" y2="68.9438" gradientUnits="userSpaceOnUse">
<stop offset="0.000454696" stop-color="#EC6608"/>
<stop offset="0.0466" stop-color="#E36016"/>
<stop offset="0.3154" stop-color="#B13C65"/>
<stop offset="0.4389" stop-color="#9D2E84"/>
<stop offset="0.5289" stop-color="#8A2482"/>
<stop offset="0.5597" stop-color="#831F82"/>
</linearGradient>
<clipPath id="clip0">
<rect width="157" height="79" fill="white"/>
</clipPath>
</defs>
</svg>
