<svg width="18" height="18" viewBox="0 0 18 18" fill="none" xmlns="http://www.w3.org/2000/svg">
<path fill-rule="evenodd" clip-rule="evenodd" d="M7.87013 3.04553C8.34638 2.18827 9.57926 2.18827 10.0555 3.04553L15.3777 12.6254C15.8405 13.4586 15.2381 14.4825 14.285 14.4825H3.64067C2.68757 14.4825 2.08511 13.4586 2.54798 12.6254L7.87013 3.04553ZM11.3668 2.31707C10.319 0.431094 7.60666 0.431094 6.55889 2.31707L1.23674 11.8969C0.218431 13.7299 1.54384 15.9825 3.64067 15.9825H14.285C16.3818 15.9825 17.7072 13.7299 16.6889 11.8969L11.3668 2.31707ZM8.95807 4.88856C9.37229 4.88856 9.70807 5.22434 9.70807 5.63856V9.12703C9.70807 9.54124 9.37229 9.87703 8.95807 9.87703C8.54386 9.87703 8.20807 9.54124 8.20807 9.12703V5.63856C8.20807 5.22434 8.54386 4.88856 8.95807 4.88856ZM8.20807 11.7433C8.20807 11.3291 8.54386 10.9933 8.95807 10.9933H8.96588C9.3801 10.9933 9.71588 11.3291 9.71588 11.7433C9.71588 12.1575 9.3801 12.4933 8.96588 12.4933H8.95807C8.54386 12.4933 8.20807 12.1575 8.20807 11.7433Z" fill="#D33D5D"/>
</svg>
