<svg width="26" height="26" viewBox="0 0 26 26" fill="none" xmlns="http://www.w3.org/2000/svg">
<circle cx="13" cy="13" r="12.5" fill="#2F59E7" stroke="#2F59E7"/>
<path d="M12.5651 5.7665C12.7567 5.42881 13.2433 5.42881 13.4349 5.7665L15.4366 9.29455C15.5078 9.42008 15.6298 9.50871 15.7712 9.53765L19.7451 10.3511C20.1254 10.429 20.2758 10.8918 20.0139 11.1783L17.277 14.1722C17.1797 14.2788 17.1331 14.4222 17.1492 14.5656L17.6036 18.5964C17.6471 18.9822 17.2534 19.2682 16.8999 19.1076L13.2068 17.4299C13.0754 17.3703 12.9246 17.3703 12.7932 17.4299L9.10008 19.1076C8.7466 19.2682 8.35294 18.9822 8.39643 18.5964L8.85078 14.5656C8.86694 14.4222 8.82035 14.2788 8.72297 14.1722L5.98615 11.1783C5.72419 10.8918 5.87456 10.429 6.25492 10.3511L10.2288 9.53765C10.3702 9.50871 10.4922 9.42008 10.5634 9.29455L12.5651 5.7665Z" stroke="white" stroke-width="1.5"/>
</svg>
