<svg width="24" height="24" viewBox="0 0 24 24" fill="none" xmlns="http://www.w3.org/2000/svg">
<path d="M5.92963 6.3999H5C3.89543 6.3999 3 7.29533 3 8.3999V17.3999C3 18.5045 3.89543 19.3999 5 19.3999H19C20.1046 19.3999 21 18.5045 21 17.3999V8.3999C21 7.29533 20.1046 6.3999 19 6.3999H18.0704C17.4017 6.3999 16.7772 6.0657 16.4063 5.5093L15.5937 4.2905C15.2228 3.7341 14.5983 3.3999 13.9296 3.3999H10.0704C9.40166 3.3999 8.7772 3.7341 8.40627 4.2905L7.59373 5.5093C7.2228 6.0657 6.59834 6.3999 5.92963 6.3999Z" stroke="#1845DE" stroke-width="1.5" stroke-linecap="round" stroke-linejoin="round"/>
<ellipse cx="12" cy="12.3999" rx="3" ry="3" stroke="#1845DE" stroke-width="1.5" stroke-linecap="round" stroke-linejoin="round"/>
</svg>
