<svg width="50" height="50" viewBox="0 0 50 50" fill="none" xmlns="http://www.w3.org/2000/svg">
<path d="M13.6736 13.2692H8.53516C7.43059 13.2692 6.53516 14.1646 6.53516 15.2692V37.7692C6.53516 38.8738 7.43058 39.7692 8.53515 39.7692H41.4582C42.5628 39.7692 43.4582 38.8738 43.4582 37.7692V15.2692C43.4582 14.1646 42.5628 13.2692 41.4582 13.2692H36.3197C35.6531 13.2692 35.0303 12.937 34.6589 12.3834L31.7448 8.03959C31.3734 7.48598 30.7505 7.15381 30.0839 7.15381H19.9095C19.2428 7.15381 18.62 7.48598 18.2486 8.03959L15.3345 12.3834C14.9631 12.937 14.3403 13.2692 13.6736 13.2692Z" stroke="#1845DE" stroke-width="3" stroke-linecap="round" stroke-linejoin="round"/>
<ellipse cx="24.9976" cy="25.6158" rx="6.15385" ry="6.15385" stroke="#1845DE" stroke-width="3" stroke-linecap="round" stroke-linejoin="round"/>
</svg>
