<svg width="49" height="49" viewBox="0 0 49 49" fill="none" xmlns="http://www.w3.org/2000/svg">
<g opacity="0.85">
<path fill-rule="evenodd" clip-rule="evenodd" d="M18.6133 9.6118C18.7988 9.33361 19.111 9.1665 19.4454 9.1665H29.5546C29.889 9.1665 30.2012 9.3336 30.3867 9.6118L33.2826 13.9556C33.8389 14.7902 34.7756 15.2915 35.7787 15.2915H40.875C41.4273 15.2915 41.875 15.7392 41.875 16.2915V38.8332C41.875 39.3855 41.4273 39.8332 40.875 39.8332H8.125C7.57272 39.8332 7.125 39.3855 7.125 38.8332V16.2915C7.125 15.7392 7.57271 15.2915 8.125 15.2915H13.2213C14.2244 15.2915 15.1611 14.7902 15.7175 13.9556L18.6133 9.6118ZM19.4454 7.1665C18.4423 7.1665 17.5056 7.66781 16.9492 8.5024L14.0534 12.8462C13.8679 13.1244 13.5557 13.2915 13.2213 13.2915H8.125C6.46815 13.2915 5.125 14.6346 5.125 16.2915V38.8332C5.125 40.49 6.46815 41.8332 8.125 41.8332H40.875C42.5319 41.8332 43.875 40.49 43.875 38.8332V16.2915C43.875 14.6347 42.5319 13.2915 40.875 13.2915H35.7787C35.4444 13.2915 35.1321 13.1244 34.9467 12.8462L32.0508 8.5024C31.4944 7.66781 30.5577 7.1665 29.5546 7.1665H19.4454ZM19.375 26.5415C19.375 23.711 21.6695 21.4165 24.5 21.4165C27.3305 21.4165 29.625 23.711 29.625 26.5415C29.625 29.372 27.3305 31.6665 24.5 31.6665C21.6695 31.6665 19.375 29.372 19.375 26.5415ZM24.5 19.4165C20.565 19.4165 17.375 22.6065 17.375 26.5415C17.375 30.4765 20.565 33.6665 24.5 33.6665C28.435 33.6665 31.625 30.4765 31.625 26.5415C31.625 22.6065 28.435 19.4165 24.5 19.4165Z" fill="white"/>
</g>
</svg>
