<svg width="16" height="16" viewBox="0 0 16 16" fill="none" xmlns="http://www.w3.org/2000/svg">
<path d="M8.02996 0C12.4045 0 16 3.59551 16 8.02996C16 12.4045 12.4045 16 8.02996 16C3.59551 16 0 12.4045 0 8.02996C0 3.59551 3.59551 0 8.02996 0ZM7.19101 3.65543C7.19101 2.8764 8.38951 2.8764 8.38951 3.65543V7.91011L11.1461 8.68914C11.8652 8.92884 11.5655 10.0674 10.7865 9.88764L7.67041 8.92884C7.37079 8.86891 7.19101 8.62921 7.19101 8.32959V3.65543ZM8.02996 1.1985C4.25468 1.1985 1.1985 4.25468 1.1985 8.02996C1.1985 11.7453 4.25468 14.8015 8.02996 14.8015C11.7453 14.8015 14.8015 11.7453 14.8015 8.02996C14.8015 4.25468 11.7453 1.1985 8.02996 1.1985Z" fill="black" fill-opacity="0.5"/>
</svg>
