<svg width="240" height="112" viewBox="0 0 240 112" fill="none" xmlns="http://www.w3.org/2000/svg">
<g clip-path="url(#clip0_3054_53599)">
<path d="M0 6C0 2.68629 2.68629 0 6 0H234C237.314 0 240 2.68629 240 6V106C240 109.314 237.314 112 234 112H5.99999C2.68629 112 0 109.314 0 106V6Z" fill="#1845DE"/>
<g opacity="0.1">
<path d="M200.62 62.8811V-2.18408H193.227V62.8811" fill="#DEDEDE"/>
<path d="M200.624 62.8799V124.797C200.624 126.819 198.968 128.458 196.925 128.458C194.882 128.458 193.227 126.819 193.227 124.797V62.8799H200.624Z" fill="#DEDEDE"/>
<path d="M189.07 62.9341L172.177 53.2131C168.525 51.1113 165.77 46.3738 165.77 42.1951V20.2384C165.77 16.0556 168.525 11.3181 172.177 9.22047L189.057 -0.492188L196.307 3.80324L175.893 15.5468C174.515 16.3392 173.167 18.6621 173.167 20.2384V42.1951C173.167 43.7715 174.519 46.0944 175.893 46.8867L196.295 58.6262" fill="#DEDEDE"/>
<path d="M196.223 58.7858L216.903 46.8838C218.281 46.0914 219.629 43.7685 219.629 42.1922V20.2355C219.629 18.6591 218.277 16.3362 216.903 15.5439L196.383 3.7377L196.211 -4.82812L220.623 9.21749C224.275 11.3193 227.031 16.0568 227.031 20.2355V42.1922C227.031 46.375 224.275 51.1125 220.623 53.2101L196.055 67.3475L196.223 58.7858Z" fill="#DEDEDE"/>
<path d="M196.054 67.3515L173.424 80.3754C172.046 81.1677 170.698 83.4906 170.698 85.067V112.253C170.698 114.276 169.043 115.915 167 115.915C164.956 115.915 163.301 114.272 163.301 112.249V85.0628C163.301 80.8841 166.056 76.1425 169.704 74.0448L196.223 58.7856L196.054 67.3515Z" fill="#DEDEDE"/>
<path d="M196.291 58.6279L223.088 74.0456C226.741 76.1474 229.492 80.8849 229.492 85.0636V112.25C229.492 114.272 227.836 115.911 225.793 115.911C223.75 115.911 222.094 114.272 222.094 112.25V85.0636C222.094 83.4872 220.742 81.1643 219.369 80.372L189.062 62.9359L196.291 58.6279Z" fill="#DEDEDE"/>
</g>
<rect x="94.1094" y="37.7212" width="51.7852" height="36.5595" rx="10.6805" fill="#FF0000"/>
<path d="M114.262 64.0782V47.9219L127.904 56.2362L114.262 64.0782Z" fill="white"/>
<g filter="url(#filter0_d_3054_53599)">
<circle cx="16.4024" cy="16.1075" r="8.15237" fill="url(#paint0_linear_3054_53599)"/>
</g>
<rect x="8.25" y="57.5957" width="70.276" height="7.95946" rx="3.97973" fill="white"/>
<rect x="8.25" y="78.1719" width="42.5915" height="7.95946" rx="3.97973" fill="white"/>
</g>
<defs>
<filter id="filter0_d_3054_53599" x="4.95124" y="7.95508" width="22.9022" height="23.1101" filterUnits="userSpaceOnUse" color-interpolation-filters="sRGB">
<feFlood flood-opacity="0" result="BackgroundImageFix"/>
<feColorMatrix in="SourceAlpha" type="matrix" values="0 0 0 0 0 0 0 0 0 0 0 0 0 0 0 0 0 0 127 0" result="hardAlpha"/>
<feMorphology radius="1.76638" operator="erode" in="SourceAlpha" result="effect1_dropShadow_3054_53599"/>
<feOffset dy="3.50664"/>
<feGaussianBlur stdDeviation="2.53257"/>
<feColorMatrix type="matrix" values="0 0 0 0 0.498039 0 0 0 0 0.32549 0 0 0 0 0.980392 0 0 0 0.48 0"/>
<feBlend mode="normal" in2="BackgroundImageFix" result="effect1_dropShadow_3054_53599"/>
<feBlend mode="normal" in="SourceGraphic" in2="effect1_dropShadow_3054_53599" result="shape"/>
</filter>
<linearGradient id="paint0_linear_3054_53599" x1="14.0821" y1="7.95508" x2="16.4369" y2="26.671" gradientUnits="userSpaceOnUse">
<stop offset="0.0001" stop-color="white"/>
<stop offset="0.785835" stop-color="#DFDFDF"/>
</linearGradient>
<clipPath id="clip0_3054_53599">
<path d="M0 6C0 2.68629 2.68629 0 6 0H234C237.314 0 240 2.68629 240 6V106C240 109.314 237.314 112 234 112H5.99999C2.68629 112 0 109.314 0 106V6Z" fill="white"/>
</clipPath>
</defs>
</svg>
