<svg width="240" height="112" viewBox="0 0 240 112" fill="none" xmlns="http://www.w3.org/2000/svg">
<g clip-path="url(#clip0_3054_53770)">
<path d="M0 6C0 2.68629 2.68629 0 6 0H234C237.314 0 240 2.68629 240 6V106C240 109.314 237.314 112 234 112H5.99999C2.68629 112 0 109.314 0 106V6Z" fill="white"/>
<rect x="-0.195312" y="-0.628906" width="242.14" height="24.2842" fill="white"/>
<g filter="url(#filter0_d_3054_53770)">
<circle cx="19.0831" cy="11.6749" r="3.78619" fill="#EE6962"/>
</g>
<g filter="url(#filter1_d_3054_53770)">
<circle cx="29.9463" cy="11.6749" r="3.78619" fill="#EEBF5B"/>
</g>
<g filter="url(#filter2_d_3054_53770)">
<circle cx="40.8135" cy="11.6749" r="3.78619" fill="#63C554"/>
</g>
<path d="M-1.75 23.4683H241.299" stroke="#EDEDED"/>
<circle cx="38.1529" cy="63.5113" r="19.067" fill="#009B27"/>
<path d="M46.703 60.442C47.3382 59.8067 47.3382 58.7767 46.703 58.1415C46.0677 57.5062 45.0378 57.5062 44.4025 58.1415L35.7926 66.7513L32.605 63.5638C31.9698 62.9285 30.9398 62.9285 30.3046 63.5638C29.6693 64.199 29.6693 65.229 30.3046 65.8642L34.6424 70.2021C35.2777 70.8373 36.3076 70.8373 36.9429 70.2021L46.703 60.442Z" fill="white"/>
<rect x="71.9648" y="50.0449" width="131.805" height="7.95946" rx="3.97973" fill="#9BB0F4"/>
<rect x="71.9648" y="70.6191" width="79.8818" height="7.95946" rx="3.97973" fill="#9BB0F4"/>
</g>
<path d="M6 1H234V-1H6V1ZM239 6V106H241V6H239ZM234 111H5.99999V113H234V111ZM1 106V6H-1V106H1ZM5.99999 111C3.23857 111 1 108.761 1 106H-1C-1 109.866 2.134 113 5.99999 113V111ZM239 106C239 108.761 236.761 111 234 111V113C237.866 113 241 109.866 241 106H239ZM234 1C236.761 1 239 3.23858 239 6H241C241 2.13401 237.866 -1 234 -1V1ZM6 -1C2.13401 -1 -1 2.134 -1 6H1C1 3.23857 3.23858 1 6 1V-1Z" fill="#EFEFF1"/>
<defs>
<filter id="filter0_d_3054_53770" x="13.7648" y="7.88867" width="10.6383" height="10.7329" filterUnits="userSpaceOnUse" color-interpolation-filters="sRGB">
<feFlood flood-opacity="0" result="BackgroundImageFix"/>
<feColorMatrix in="SourceAlpha" type="matrix" values="0 0 0 0 0 0 0 0 0 0 0 0 0 0 0 0 0 0 127 0" result="hardAlpha"/>
<feMorphology radius="0.820359" operator="erode" in="SourceAlpha" result="effect1_dropShadow_3054_53770"/>
<feOffset dy="1.62858"/>
<feGaussianBlur stdDeviation="1.1762"/>
<feColorMatrix type="matrix" values="0 0 0 0 0.498039 0 0 0 0 0.32549 0 0 0 0 0.980392 0 0 0 0.48 0"/>
<feBlend mode="normal" in2="BackgroundImageFix" result="effect1_dropShadow_3054_53770"/>
<feBlend mode="normal" in="SourceGraphic" in2="effect1_dropShadow_3054_53770" result="shape"/>
</filter>
<filter id="filter1_d_3054_53770" x="24.6281" y="7.88867" width="10.6383" height="10.7329" filterUnits="userSpaceOnUse" color-interpolation-filters="sRGB">
<feFlood flood-opacity="0" result="BackgroundImageFix"/>
<feColorMatrix in="SourceAlpha" type="matrix" values="0 0 0 0 0 0 0 0 0 0 0 0 0 0 0 0 0 0 127 0" result="hardAlpha"/>
<feMorphology radius="0.820359" operator="erode" in="SourceAlpha" result="effect1_dropShadow_3054_53770"/>
<feOffset dy="1.62858"/>
<feGaussianBlur stdDeviation="1.1762"/>
<feColorMatrix type="matrix" values="0 0 0 0 0.498039 0 0 0 0 0.32549 0 0 0 0 0.980392 0 0 0 0.48 0"/>
<feBlend mode="normal" in2="BackgroundImageFix" result="effect1_dropShadow_3054_53770"/>
<feBlend mode="normal" in="SourceGraphic" in2="effect1_dropShadow_3054_53770" result="shape"/>
</filter>
<filter id="filter2_d_3054_53770" x="35.4953" y="7.88867" width="10.6383" height="10.7329" filterUnits="userSpaceOnUse" color-interpolation-filters="sRGB">
<feFlood flood-opacity="0" result="BackgroundImageFix"/>
<feColorMatrix in="SourceAlpha" type="matrix" values="0 0 0 0 0 0 0 0 0 0 0 0 0 0 0 0 0 0 127 0" result="hardAlpha"/>
<feMorphology radius="0.820359" operator="erode" in="SourceAlpha" result="effect1_dropShadow_3054_53770"/>
<feOffset dy="1.62858"/>
<feGaussianBlur stdDeviation="1.1762"/>
<feColorMatrix type="matrix" values="0 0 0 0 0.498039 0 0 0 0 0.32549 0 0 0 0 0.980392 0 0 0 0.48 0"/>
<feBlend mode="normal" in2="BackgroundImageFix" result="effect1_dropShadow_3054_53770"/>
<feBlend mode="normal" in="SourceGraphic" in2="effect1_dropShadow_3054_53770" result="shape"/>
</filter>
<clipPath id="clip0_3054_53770">
<path d="M0 6C0 2.68629 2.68629 0 6 0H234C237.314 0 240 2.68629 240 6V106C240 109.314 237.314 112 234 112H5.99999C2.68629 112 0 109.314 0 106V6Z" fill="white"/>
</clipPath>
</defs>
</svg>
