<svg width="240" height="112" viewBox="0 0 240 112" fill="none" xmlns="http://www.w3.org/2000/svg">
<g clip-path="url(#clip0_3054_54045)">
<path d="M0 6C0 2.68629 2.68629 0 6 0H234C237.314 0 240 2.68629 240 6V106C240 109.314 237.314 112 234 112H5.99999C2.68629 112 0 109.314 0 106V6Z" fill="white"/>
<rect x="-1.07031" y="-0.628906" width="242.14" height="24.2842" fill="white"/>
<g filter="url(#filter0_d_3054_54045)">
<circle cx="18.9151" cy="11.6749" r="3.78619" fill="#EE6962"/>
</g>
<g filter="url(#filter1_d_3054_54045)">
<circle cx="29.7784" cy="11.6749" r="3.78619" fill="#EEBF5B"/>
</g>
<g filter="url(#filter2_d_3054_54045)">
<circle cx="40.6456" cy="11.6749" r="3.78619" fill="#63C554"/>
</g>
<rect x="15.1289" y="57.4512" width="158.033" height="8" rx="4" fill="#9BB0F4"/>
<rect x="15.1289" y="37.4512" width="95.7777" height="8" rx="4" fill="#9BB0F4"/>
<rect x="15.1289" y="78.3823" width="120.64" height="22.3777" rx="6" fill="#009B27"/>
<path d="M49.0199 89.5714L97.2766 89.571" stroke="#F9F9F9" stroke-width="3" stroke-linecap="round"/>
<path d="M0 23.4688H239.215" stroke="#EDEDED"/>
</g>
<path d="M6 1H234V-1H6V1ZM239 6V106H241V6H239ZM234 111H5.99999V113H234V111ZM1 106V6H-1V106H1ZM5.99999 111C3.23857 111 1 108.761 1 106H-1C-1 109.866 2.134 113 5.99999 113V111ZM239 106C239 108.761 236.761 111 234 111V113C237.866 113 241 109.866 241 106H239ZM234 1C236.761 1 239 3.23858 239 6H241C241 2.13401 237.866 -1 234 -1V1ZM6 -1C2.13401 -1 -1 2.134 -1 6H1C1 3.23857 3.23858 1 6 1V-1Z" fill="#EFEFF1"/>
<defs>
<filter id="filter0_d_3054_54045" x="13.5969" y="7.88867" width="10.6383" height="10.7329" filterUnits="userSpaceOnUse" color-interpolation-filters="sRGB">
<feFlood flood-opacity="0" result="BackgroundImageFix"/>
<feColorMatrix in="SourceAlpha" type="matrix" values="0 0 0 0 0 0 0 0 0 0 0 0 0 0 0 0 0 0 127 0" result="hardAlpha"/>
<feMorphology radius="0.820359" operator="erode" in="SourceAlpha" result="effect1_dropShadow_3054_54045"/>
<feOffset dy="1.62858"/>
<feGaussianBlur stdDeviation="1.1762"/>
<feColorMatrix type="matrix" values="0 0 0 0 0.498039 0 0 0 0 0.32549 0 0 0 0 0.980392 0 0 0 0.48 0"/>
<feBlend mode="normal" in2="BackgroundImageFix" result="effect1_dropShadow_3054_54045"/>
<feBlend mode="normal" in="SourceGraphic" in2="effect1_dropShadow_3054_54045" result="shape"/>
</filter>
<filter id="filter1_d_3054_54045" x="24.4602" y="7.88867" width="10.6383" height="10.7329" filterUnits="userSpaceOnUse" color-interpolation-filters="sRGB">
<feFlood flood-opacity="0" result="BackgroundImageFix"/>
<feColorMatrix in="SourceAlpha" type="matrix" values="0 0 0 0 0 0 0 0 0 0 0 0 0 0 0 0 0 0 127 0" result="hardAlpha"/>
<feMorphology radius="0.820359" operator="erode" in="SourceAlpha" result="effect1_dropShadow_3054_54045"/>
<feOffset dy="1.62858"/>
<feGaussianBlur stdDeviation="1.1762"/>
<feColorMatrix type="matrix" values="0 0 0 0 0.498039 0 0 0 0 0.32549 0 0 0 0 0.980392 0 0 0 0.48 0"/>
<feBlend mode="normal" in2="BackgroundImageFix" result="effect1_dropShadow_3054_54045"/>
<feBlend mode="normal" in="SourceGraphic" in2="effect1_dropShadow_3054_54045" result="shape"/>
</filter>
<filter id="filter2_d_3054_54045" x="35.3273" y="7.88867" width="10.6383" height="10.7329" filterUnits="userSpaceOnUse" color-interpolation-filters="sRGB">
<feFlood flood-opacity="0" result="BackgroundImageFix"/>
<feColorMatrix in="SourceAlpha" type="matrix" values="0 0 0 0 0 0 0 0 0 0 0 0 0 0 0 0 0 0 127 0" result="hardAlpha"/>
<feMorphology radius="0.820359" operator="erode" in="SourceAlpha" result="effect1_dropShadow_3054_54045"/>
<feOffset dy="1.62858"/>
<feGaussianBlur stdDeviation="1.1762"/>
<feColorMatrix type="matrix" values="0 0 0 0 0.498039 0 0 0 0 0.32549 0 0 0 0 0.980392 0 0 0 0.48 0"/>
<feBlend mode="normal" in2="BackgroundImageFix" result="effect1_dropShadow_3054_54045"/>
<feBlend mode="normal" in="SourceGraphic" in2="effect1_dropShadow_3054_54045" result="shape"/>
</filter>
<clipPath id="clip0_3054_54045">
<path d="M0 6C0 2.68629 2.68629 0 6 0H234C237.314 0 240 2.68629 240 6V106C240 109.314 237.314 112 234 112H5.99999C2.68629 112 0 109.314 0 106V6Z" fill="white"/>
</clipPath>
</defs>
</svg>
