<svg width="18" height="18" viewBox="0 0 18 18" fill="none" xmlns="http://www.w3.org/2000/svg">
<path fill-rule="evenodd" clip-rule="evenodd" d="M2 5C2.55228 5 3 4.55228 3 4C3 3.44772 2.55228 3 2 3C1.44772 3 1 3.44772 1 4C1 4.55228 1.44772 5 2 5ZM6 3C5.44772 3 5 3.44772 5 4C5 4.55228 5.44771 5 6 5H16C16.5523 5 17 4.55228 17 4C17 3.44772 16.5523 3 16 3H6ZM6 8C5.44772 8 5 8.44772 5 9C5 9.55228 5.44771 10 6 10H16C16.5523 10 17 9.55228 17 9C17 8.44772 16.5523 8 16 8H6ZM5 14C5 13.4477 5.44772 13 6 13H16C16.5523 13 17 13.4477 17 14C17 14.5523 16.5523 15 16 15H6C5.44771 15 5 14.5523 5 14ZM3 9C3 9.55228 2.55228 10 2 10C1.44772 10 1 9.55228 1 9C1 8.44772 1.44772 8 2 8C2.55228 8 3 8.44772 3 9ZM2 15C2.55228 15 3 14.5523 3 14C3 13.4477 2.55228 13 2 13C1.44772 13 1 13.4477 1 14C1 14.5523 1.44772 15 2 15Z" fill="#FFFFFF"/>
</svg>
