<svg width="24" height="24" viewBox="0 0 24 24" fill="none" xmlns="http://www.w3.org/2000/svg">
<path fill-rule="evenodd" clip-rule="evenodd" d="M7.85383 14.2123C6.968 13.383 6.41606 12.4668 6.16882 11.9999C6.41606 11.5331 6.968 10.6169 7.85383 9.78755C8.8329 8.87095 10.1924 8.08325 12.0001 8.08325C13.8078 8.08325 15.1673 8.87095 16.1464 9.78755C17.0322 10.6169 17.5842 11.5331 17.8314 11.9999C17.5842 12.4668 17.0322 13.383 16.1464 14.2123C15.1673 15.1289 13.8078 15.9166 12.0001 15.9166C10.1924 15.9166 8.8329 15.1289 7.85383 14.2123ZM12.0001 6.58325C9.71273 6.58325 8.00388 7.59231 6.82868 8.69253C5.66148 9.78526 4.9938 10.9902 4.75342 11.4725C4.5874 11.8056 4.5874 12.1942 4.75342 12.5273C4.9938 13.0097 5.66148 14.2146 6.82868 15.3073C8.00388 16.4075 9.71273 17.4166 12.0001 17.4166C14.2875 17.4166 15.9963 16.4075 17.1716 15.3073C18.3387 14.2146 19.0064 13.0097 19.2468 12.5273C19.4128 12.1942 19.4128 11.8057 19.2468 11.4725C19.0064 10.9902 18.3387 9.78526 17.1716 8.69253C15.9963 7.59231 14.2875 6.58325 12.0001 6.58325ZM10.7501 11.9999C10.7501 11.3096 11.3098 10.7499 12.0001 10.7499C12.6905 10.7499 13.2501 11.3096 13.2501 11.9999C13.2501 12.6903 12.6905 13.2499 12.0001 13.2499C11.3098 13.2499 10.7501 12.6903 10.7501 11.9999ZM12.0001 9.24992C10.4813 9.24992 9.25011 10.4811 9.25011 11.9999C9.25011 13.5187 10.4813 14.7499 12.0001 14.7499C13.5189 14.7499 14.7501 13.5187 14.7501 11.9999C14.7501 10.4811 13.5189 9.24992 12.0001 9.24992Z" fill="#1845DE"/>
<path d="M12 22C6.47715 22 2 17.5228 2 12H-2C-2 19.732 4.26801 26 12 26V22ZM22 12C22 17.5228 17.5228 22 12 22V26C19.732 26 26 19.732 26 12H22ZM12 2C17.5228 2 22 6.47715 22 12H26C26 4.26801 19.732 -2 12 -2V2ZM12 -2C4.26801 -2 -2 4.26801 -2 12H2C2 6.47715 6.47715 2 12 2V-2Z" fill="#1845DE"/>
</svg>
