<svg width="24" height="24" viewBox="0 0 24 24" fill="none" xmlns="http://www.w3.org/2000/svg">
<path fill-rule="evenodd" clip-rule="evenodd" d="M10.5769 16.0002C10.3929 16.0002 10.2169 15.9242 10.0909 15.7902L6.84889 12.3375C6.59622 12.0695 6.61022 11.6475 6.87822 11.3955C7.14689 11.1435 7.56889 11.1568 7.82022 11.4248L10.5702 14.3522L16.1756 8.21749C16.4249 7.94482 16.8462 7.92682 17.1182 8.17482C17.3896 8.42282 17.4082 8.84482 17.1602 9.11616L11.0689 15.7828C10.9442 15.9202 10.7669 15.9988 10.5816 16.0002H10.5769Z" fill="#009B27"/>
<path d="M12 22C6.47715 22 2 17.5228 2 12H-2C-2 19.732 4.26801 26 12 26V22ZM22 12C22 17.5228 17.5228 22 12 22V26C19.732 26 26 19.732 26 12H22ZM12 2C17.5228 2 22 6.47715 22 12H26C26 4.26801 19.732 -2 12 -2V2ZM12 -2C4.26801 -2 -2 4.26801 -2 12H2C2 6.47715 6.47715 2 12 2V-2Z" fill="#009B27"/>
</svg>
