<svg width="24" height="24" viewBox="0 0 24 24" fill="none" xmlns="http://www.w3.org/2000/svg">
<path fill-rule="evenodd" clip-rule="evenodd" d="M12.9193 8.42238C13.1521 8.18922 13.5299 8.18922 13.7627 8.42238L17.3346 12L13.7627 15.5776C13.5299 15.8108 13.1521 15.8108 12.9193 15.5776C12.687 15.345 12.687 14.9682 12.9193 14.7356L15.0551 12.5964L7.26435 12.5964C6.93498 12.5964 6.66797 12.3294 6.66797 12C6.66797 11.6706 6.93498 11.4036 7.26435 11.4036L15.0551 11.4036L12.9193 9.26444C12.687 9.03181 12.687 8.65502 12.9193 8.42238Z" fill="#9A9A9A"/>
<path d="M12 22C6.47715 22 2 17.5228 2 12H-2C-2 19.732 4.26801 26 12 26V22ZM22 12C22 17.5228 17.5228 22 12 22V26C19.732 26 26 19.732 26 12H22ZM12 2C17.5228 2 22 6.47715 22 12H26C26 4.26801 19.732 -2 12 -2V2ZM12 -2C4.26801 -2 -2 4.26801 -2 12H2C2 6.47715 6.47715 2 12 2V-2Z" fill="#9A9A9A"/>
</svg>
