<svg width="16" height="16" viewBox="0 0 16 16" fill="none" xmlns="http://www.w3.org/2000/svg">
<path d="M3.55469 9.18517L3.55469 10.7407C3.55469 11.8453 4.45012 12.7407 5.55469 12.7407L11.0362 12.7407C12.1407 12.7407 13.0362 11.8453 13.0362 10.7407L13.0362 9.18517M3.55469 9.18517L3.55469 5.03702C3.55469 4.05518 4.35063 3.25924 5.33247 3.25924V3.25924M3.55469 9.18517L5.92506 9.18517C6.25234 9.18517 6.51765 9.45048 6.51765 9.77776V9.77776C6.51765 10.105 6.78296 10.3704 7.11024 10.3704L9.48061 10.3704C9.80789 10.3704 10.0732 10.105 10.0732 9.77776V9.77776C10.0732 9.45048 10.3385 9.18517 10.6658 9.18517L13.0362 9.18517M13.0362 9.18517L13.0362 5.03702C13.0362 4.05518 12.2402 3.25924 11.2584 3.25924V3.25924M8.29543 7.40739L6.51765 5.62961M8.29543 7.40739L10.0732 5.62961M8.29543 7.40739L8.29543 2.66665" stroke="black" stroke-width="1.5" stroke-linecap="round" stroke-linejoin="round"/>
</svg>
