<svg width="60" height="60" viewBox="0 0 60 60" fill="none" xmlns="http://www.w3.org/2000/svg">
<rect width="60" height="60" fill="#2F59E7"/>
<path d="M31.7965 35.5167V13.2092H29.2617V35.5167" fill="#E5005B"/>
<path d="M31.7979 35.5166V56.7446C31.7979 57.4381 31.2303 58 30.5298 58C29.8293 58 29.2617 57.4381 29.2617 56.7446V35.5166H31.7979Z" fill="#213A8F"/>
<path d="M29.2617 13.2089V2.25535C29.2617 1.56191 29.8293 1 30.5298 1C31.2303 1 31.7979 1.56191 31.7979 2.25535V13.2104H29.2617V13.2089Z" fill="#FFD500"/>
<path d="M27.8401 35.5349L22.0484 32.2021C20.7961 31.4815 19.8516 29.8572 19.8516 28.4246V20.8968C19.8516 19.4627 20.7961 17.8385 22.0484 17.1193L27.8357 13.7893L30.3214 15.262L23.3222 19.2883C22.85 19.5599 22.3878 20.3563 22.3878 20.8968V28.4246C22.3878 28.9651 22.8514 29.7614 23.3222 30.0331L30.3171 34.058" fill="url(#paint0_linear)"/>
<path d="M30.2921 34.1125L37.3823 30.0318C37.8546 29.7602 38.3168 28.9638 38.3168 28.4233V20.8955C38.3168 20.355 37.8531 19.5587 37.3823 19.287L30.347 15.2393L30.2878 12.3025L38.6576 17.118C39.9098 17.8386 40.8544 19.4629 40.8544 20.8955V28.4233C40.8544 29.8574 39.9098 31.4816 38.6576 32.2008L30.2344 37.0478L30.2921 34.1125Z" fill="url(#paint1_linear)"/>
<path d="M30.2295 37.0491L22.4707 41.5143C21.9984 41.786 21.5362 42.5824 21.5362 43.1228V52.4436C21.5362 53.137 20.9686 53.6989 20.2681 53.6989C19.5676 53.6989 19 53.1356 19 52.4422V43.1214C19 41.6887 19.9446 40.0631 21.1954 39.3439L30.2873 34.1123L30.2295 37.0491Z" fill="url(#paint2_linear)"/>
<path d="M30.3417 15.2395L19.6307 9.07569C19.0255 8.72682 18.8204 7.95902 19.1714 7.35994C19.5238 6.76086 20.2994 6.55783 20.9046 6.90527L30.2825 12.3013L30.3417 15.2395Z" fill="#C8D400"/>
<path d="M27.8281 13.788L39.7885 6.90503C40.3937 6.55759 41.1693 6.76062 41.5217 7.3597C41.8726 7.95878 41.6675 8.72658 41.0624 9.07544L30.3138 15.2607L27.8281 13.788Z" fill="#FFED00"/>
<path d="M30.3105 34.0581L39.4978 39.344C40.75 40.0646 41.6931 41.6889 41.6931 43.1215V52.4423C41.6931 53.1358 41.1255 53.6977 40.425 53.6977C39.7245 53.6977 39.1569 53.1358 39.1569 52.4423V43.1215C39.1569 42.5811 38.6933 41.7847 38.2224 41.513L27.832 35.5351L30.3105 34.0581Z" fill="url(#paint3_linear)"/>
<defs>
<linearGradient id="paint0_linear" x1="20.6438" y1="30.9843" x2="33.2945" y2="18.2051" gradientUnits="userSpaceOnUse">
<stop offset="0.4913" stop-color="#EC6608"/>
<stop offset="0.6029" stop-color="#FFED00"/>
</linearGradient>
<linearGradient id="paint1_linear" x1="24.923" y1="31.7919" x2="39.1433" y2="17.4271" gradientUnits="userSpaceOnUse">
<stop offset="0.4388" stop-color="#007BC4"/>
<stop offset="0.4583" stop-color="#0E82B1"/>
<stop offset="0.4977" stop-color="#349581"/>
<stop offset="0.553" stop-color="#6FB433"/>
<stop offset="0.5592" stop-color="#76B82A"/>
</linearGradient>
<linearGradient id="paint2_linear" x1="16.7003" y1="50.6855" x2="31.7114" y2="35.5219" gradientUnits="userSpaceOnUse">
<stop offset="0.4927" stop-color="#009FE3"/>
<stop offset="0.6029" stop-color="#007BC4"/>
</linearGradient>
<linearGradient id="paint3_linear" x1="28.2612" y1="35.1118" x2="43.8343" y2="50.8431" gradientUnits="userSpaceOnUse">
<stop offset="0.000454696" stop-color="#EC6608"/>
<stop offset="0.0466" stop-color="#E36016"/>
<stop offset="0.3154" stop-color="#B13C65"/>
<stop offset="0.4389" stop-color="#9D2E84"/>
<stop offset="0.5289" stop-color="#8A2482"/>
<stop offset="0.5597" stop-color="#831F82"/>
</linearGradient>
</defs>
</svg>
