<svg width="34" height="34" viewBox="0 0 34 34" fill="none" xmlns="http://www.w3.org/2000/svg">
<path fill-rule="evenodd" clip-rule="evenodd" d="M14 15C14 13.3431 15.3431 12 17 12C18.6569 12 20 13.3431 20 15C20 16.6569 18.6569 18 17 18C15.3431 18 14 16.6569 14 15ZM17 10C14.2386 10 12 12.2386 12 15C12 16.6175 12.768 18.0555 13.9593 18.9695C12.1967 20.025 11 21.8526 11 24C11 24.5523 11.4477 25 12 25H23C23.5523 25 24 24.5523 24 24C24 21.6108 22.5187 19.6176 20.4248 18.6429C21.3945 17.731 22 16.4362 22 15C22 12.2386 19.7614 10 17 10ZM17.5 20C19.6618 20 21.3632 21.3217 21.8555 23H13.1445C13.6368 21.3217 15.3382 20 17.5 20Z" fill="#009B27"/>
<rect x="0.5" y="0.5" width="33" height="33" rx="16.5" stroke="#EFEFF1"/>
</svg>
