<svg width="34" height="34" viewBox="0 0 34 34" fill="none" xmlns="http://www.w3.org/2000/svg">
<path fill-rule="evenodd" clip-rule="evenodd" d="M22 10H24C24.55 10 25 10.3937 25 10.875V23.125C25 23.6062 24.55 24 24 24H22C21.45 24 21 23.6062 21 23.125C21 22.6438 21.45 22.25 22 22.25H23V11.75H22C21.45 11.75 21 11.3563 21 10.875C21 10.3937 21.45 10 22 10ZM16.7831 13.1797C17.1901 12.8818 17.763 12.9628 18.0664 13.3597L20.8163 16.9598C21.0547 17.2712 21.062 17.6979 20.8328 18.0174L18.2534 21.6175C18.0747 21.8668 17.7914 22 17.5027 22C17.3212 22 17.1369 21.9469 16.9765 21.8362C16.5622 21.55 16.4623 20.9884 16.7538 20.5816L18.3286 18.3837C18.3162 18.3849 18.3046 18.3883 18.2931 18.3916C18.2789 18.3958 18.2649 18.3999 18.2497 18.3999H10.9166C10.4107 18.3999 10 17.9967 10 17.4998C10 17.0021 10.4107 16.5998 10.9166 16.5998H18.2497H18.2507L16.5998 14.4388C16.2964 14.0419 16.378 13.4776 16.7831 13.1797Z" fill="#333333"/>
<rect x="0.5" y="0.5" width="33" height="33" rx="16.5" stroke="#EFEFF1"/>
</svg>
