<svg width="16" height="16" viewBox="0 0 16 16" fill="none" xmlns="http://www.w3.org/2000/svg">
<path d="M16 0H0V16H16V0Z" fill="white"/>
<path d="M10.4871 5.51289C8.22177 3.24758 5.20766 2 2 2V4.36012C4.57725 4.36012 6.99869 5.36218 8.81825 7.18175C10.6378 9.00131 11.6399 11.4228 11.6399 14H14C14 10.7923 12.7524 7.77819 10.4871 5.51289Z" fill="#1845DE"/>
<path d="M2 6V8.35829C5.11082 8.35829 7.6417 10.8891 7.6417 14H10C10 9.58878 6.41124 6 2 6Z" fill="#1845DE"/>
<path d="M3.5 14C4.32843 14 5 13.3284 5 12.5C5 11.6716 4.32843 11 3.5 11C2.67157 11 2 11.6716 2 12.5C2 13.3284 2.67157 14 3.5 14Z" fill="#1845DE"/>
</svg>
