<svg width="100%" height="100%" viewBox="0 0 81 41" fill="none" xmlns="http://www.w3.org/2000/svg">
<path d="M29.7706 11.2995V16.8951H29.1119V11.2995H27.3262V10.709H31.5563V11.2995H29.7706Z" fill="white"/>
<path d="M32.71 16.8951V10.709H36.5412V11.2995H33.3687V13.481H36.0729V14.0715H33.3687V16.302H36.5412V16.8951H32.71Z" fill="white"/>
<path d="M41.4919 16.8951V11.2995H38.5689V16.8951H37.9102V10.709H42.1506V16.8951H41.4919Z" fill="white"/>
<path d="M47.3683 16.8951V11.2995H45.2713V13.4191C45.2713 16.0261 44.646 16.8951 43.4676 16.8951H43.1562V16.3046H43.3209C44.0826 16.3046 44.6306 15.7915 44.6306 13.2206V10.709H48.0296V16.8951H47.3683Z" fill="white"/>
<path d="M53.5733 16.8951V11.8462L50.4368 16.8951H49.8115V10.709H50.4702V15.7476L53.6094 10.709H54.232V16.8951H53.5733Z" fill="white"/>
<path d="M60.3439 18.3881V16.8951H56.0186V10.709H56.6773V16.302H59.6003V10.709H60.259V16.302H60.9949V18.3881H60.3439Z" fill="white"/>
<path d="M65.8402 16.8951L65.3462 15.4975H62.6496L62.1556 16.8951H61.4531L63.7251 10.709H64.2809L66.5426 16.8951H65.8402ZM64.0107 11.6554L62.8477 14.9225H65.1532L64.0107 11.6554Z" fill="white"/>
<path d="M28.666 32.9135V21.0029H30.4697V26.6578L34.9108 21.0029H37.1314L32.5565 26.6243L37.5482 32.9135H35.2608L30.4697 26.6913V32.9135H28.666Z" fill="white"/>
<path d="M42.5409 30.9744C42.0726 32.0625 41.3212 32.9161 40.0373 32.9161H38.8022V31.2941H39.6539C40.3718 31.2941 40.7732 30.9769 41.0408 30.34L41.4576 29.3705L37.6006 21.0054H39.5047L42.3427 27.3798L44.8978 21.0054H46.8019L42.5409 30.9744Z" fill="white"/>
<path d="M52.9572 28.2307H50.2529V32.9161H48.4492V21.0029H52.9572C55.2112 21.0029 56.7628 22.4753 56.7628 24.6155C56.7628 26.7583 55.2112 28.2307 52.9572 28.2307ZM52.8414 22.6248H50.2529V26.6062H52.8414C54.1434 26.6062 54.9616 25.8378 54.9616 24.6155C54.9591 23.3778 54.1434 22.6248 52.8414 22.6248Z" fill="white"/>
<path d="M62.7885 33.014C61.5535 33.014 60.4856 32.5628 59.6674 31.7428C58.4992 30.5721 58.5147 29.2492 58.5147 26.9569C58.5147 24.6645 58.4967 23.3442 59.6674 22.1709C60.4856 21.3509 61.5535 20.8997 62.7885 20.8997C64.9756 20.8997 66.6121 22.189 67.0289 24.5639H65.1918C64.9087 23.3597 64.1059 22.5216 62.7885 22.5216C62.0861 22.5216 61.4531 22.7898 61.0363 23.2411C60.4522 23.878 60.3184 24.5639 60.3184 26.9543C60.3184 29.3472 60.4522 30.0331 61.0363 30.6675C61.4531 31.1187 62.0886 31.3869 62.7885 31.3869C64.1085 31.3869 64.9242 30.5514 65.2098 29.3447H67.0289C66.6275 31.7273 64.9422 33.014 62.7885 33.014Z" fill="white"/>
<path d="M73.9885 32.9135H69.4316V21.0003H71.2354V25.6856H73.9911C76.2606 25.6856 77.7632 27.158 77.7632 29.2983C77.7632 31.4437 76.2425 32.9135 73.9885 32.9135ZM73.8393 27.3101H71.2354V31.2915H73.8393C75.1593 31.2915 75.9415 30.5386 75.9415 29.3008C75.9441 28.0786 75.1593 27.3101 73.8393 27.3101ZM79.199 21.0029H81.0027V32.9161H79.199V21.0029Z" fill="white"/>
<path d="M8.19159 41C7.69499 41 7.29102 40.5952 7.29102 40.0975V0.902516C7.29102 0.404843 7.69499 0 8.19159 0C8.68819 0 9.09216 0.404843 9.09216 0.902516V40.0975C9.09216 40.5952 8.69076 41 8.19159 41Z" fill="white"/>
<path d="M15.2259 37.6478C14.7293 37.6478 14.3253 37.2429 14.3253 36.7453V30.0409C14.3253 29.6515 13.9959 29.079 13.6615 28.8831L2.16243 22.1864C1.27216 21.6681 0.600586 20.5 0.600586 19.4685V14.0534C0.600586 13.022 1.27216 11.8539 2.15986 11.3356L14.7704 3.98909C15.2001 3.73897 15.7508 3.88595 16.0029 4.31658C16.2525 4.74721 16.1059 5.29903 15.6762 5.54916L3.06815 12.8956C2.73365 13.0916 2.4043 13.6641 2.4043 14.0534V19.4685C2.4043 19.8579 2.73365 20.4304 3.06815 20.6263L14.5672 27.323C15.4574 27.8413 16.1264 29.0094 16.1264 30.0409V36.7453C16.1264 37.2429 15.7225 37.6478 15.2259 37.6478Z" fill="white"/>
<path d="M0.901343 37.6478C0.404742 37.6478 0.000770765 37.2429 0.000770765 36.7452V30.0408C0.000770765 29.0094 0.67234 27.8413 1.56005 27.323L13.0591 20.6263C13.3936 20.4303 13.7229 19.8579 13.7229 19.4685V14.0534C13.7229 13.664 13.3936 13.0916 13.0591 12.8956L0.448484 5.55172C0.0187822 5.30159 -0.127882 4.74977 0.121705 4.31914C0.371292 3.88851 0.921927 3.74153 1.3542 3.99166L13.9648 11.3381C14.8551 11.8564 15.5241 13.0245 15.5241 14.056V19.4711C15.5241 20.5025 14.8525 21.6707 13.9648 22.189L2.46576 28.883C2.13127 29.079 1.80191 29.6515 1.80191 30.0408V36.7452C1.80191 37.2429 1.39794 37.6478 0.901343 37.6478Z" fill="white"/>
</svg>
