<svg width="84" height="42" viewBox="0 0 84 42" fill="none" xmlns="http://www.w3.org/2000/svg">
<path d="M30.8709 11.574V17.3052H30.1877V11.574H28.3359V10.9692H32.7227V11.574H30.8709Z" fill="black"/>
<path d="M33.918 17.3062V10.9692H37.8918V11.574H34.6012V13.8074H37.4065V14.4122H34.6012V16.6994H37.8918V17.3041H33.918V17.3062Z" fill="black"/>
<path d="M43.0256 17.3062V11.575H39.9957V17.3062H39.3125V10.9692H43.7089V17.3062H43.0256Z" fill="black"/>
<path d="M49.1207 17.3061V11.5749H46.9454V13.7463C46.9454 16.4159 46.2983 17.3061 45.0755 17.3061H44.752V16.7014H44.9233C45.714 16.7014 46.2813 16.1757 46.2813 13.5419V10.9702H49.805V17.3072H49.1207V17.3061Z" fill="black"/>
<path d="M55.5577 17.3062V12.1355L52.3033 17.3062H51.6562V10.9692H52.3395V16.1305L55.5939 10.9692H56.241V17.3062H55.5577Z" fill="black"/>
<path d="M62.5775 18.837V17.3062H58.0918V10.9692H58.775V16.7004H61.8049V10.9692H62.4881V16.7004H63.2523V18.8359H62.5775V18.837Z" fill="black"/>
<path d="M68.2781 17.3062L67.7652 15.8734H64.9694L64.4564 17.3062H63.7285L66.0837 10.9692H66.6594L69.0061 17.3062H68.2781ZM66.3806 11.9395L65.1759 15.2855H67.5672L66.3806 11.9395Z" fill="black"/>
<path d="M29.7285 33.7171V21.5151H31.5984V27.3074L36.2033 21.5151H38.5063L33.763 27.2737L38.9395 33.7171H36.5673L31.5984 27.3422V33.7171H29.7285Z" fill="black"/>
<path d="M44.1165 31.7292C43.6312 32.8438 42.8522 33.7172 41.5197 33.7172H40.2384V32.0547H41.1217C41.8667 32.0547 42.2817 31.7292 42.5584 31.0781L42.9916 30.0836L38.9922 21.5142H40.9663L43.909 28.0439L46.5578 21.5142H48.5309L44.1165 31.7292Z" fill="black"/>
<path d="M54.9163 28.9183H52.1121V33.7171H50.2422V21.5151H54.9163C57.2534 21.5151 58.8636 23.0238 58.8636 25.2172C58.8636 27.4107 57.2534 28.9183 54.9163 28.9183ZM54.795 23.1776H52.1121V27.2569H54.795C56.1455 27.2569 56.9937 26.4688 56.9937 25.2172C56.9937 23.9488 56.1455 23.1776 54.795 23.1776Z" fill="black"/>
<path d="M65.1131 33.8204C63.8318 33.8204 62.7239 33.3579 61.8757 32.5183C60.6636 31.3183 60.6817 29.9645 60.6817 27.6172C60.6817 25.27 60.6646 23.9151 61.8757 22.7162C62.7239 21.8766 63.8318 21.4141 65.1131 21.4141C67.381 21.4141 69.0774 22.7341 69.5106 25.1678H67.6066C67.3129 23.9341 66.4817 23.0765 65.1142 23.0765C64.3873 23.0765 63.7296 23.3504 63.2965 23.814C62.6909 24.4651 62.5526 25.1678 62.5526 27.6183C62.5526 30.0688 62.6909 30.7715 63.2965 31.4226C63.7296 31.8851 64.3873 32.1601 65.1142 32.1601C66.4817 32.1601 67.3299 31.3035 67.6247 30.0688H69.5116C69.0944 32.5004 67.3459 33.8204 65.1131 33.8204Z" fill="black"/>
<path d="M76.7282 33.7171H72.002V21.5151H73.8718V26.314H76.7282C79.0823 26.314 80.6403 27.8226 80.6403 30.0161C80.6403 32.2095 79.0653 33.7171 76.7282 33.7171ZM76.5718 27.9754H73.8707V32.0547H76.5718C77.9393 32.0547 78.7535 31.2835 78.7535 30.015C78.7535 28.7645 77.9393 27.9754 76.5718 27.9754ZM82.1292 33.7171V21.5151H83.9991V33.7171H82.1292Z" fill="black"/>
<path d="M9.42828 25.4333V8.99609H7.56055V25.4333" fill="#E5005B"/>
<path d="M9.42934 25.4333V41.0751C9.42934 41.5861 9.0111 42.0001 8.49494 42.0001C7.97879 42.0001 7.56055 41.5861 7.56055 41.0751V25.4333H9.42934Z" fill="#213A8F"/>
<path d="M7.56055 8.99609V0.924999C7.56055 0.414037 7.97879 0 8.49494 0C9.0111 0 9.42934 0.414037 9.42934 0.924999V8.99714H7.56055V8.99609Z" fill="#FFD500"/>
<path d="M6.50933 25.447L2.24175 22.9912C1.31906 22.4602 0.623047 21.2634 0.623047 20.2078V14.6609C0.623047 13.6042 1.31906 12.4074 2.24175 11.8775L6.50613 9.42383L8.33768 10.509L3.1804 13.4757C2.8324 13.6759 2.49184 14.2627 2.49184 14.6609V20.2078C2.49184 20.606 2.83346 21.1928 3.1804 21.393L8.33449 24.3587" fill="url(#paint0_linear)"/>
<path d="M8.31796 24.3987L13.5423 21.3919C13.8903 21.1917 14.2308 20.6049 14.2308 20.2067V14.6598C14.2308 14.2616 13.8892 13.6748 13.5423 13.4746L8.3584 10.4921L8.31477 8.32812L14.482 11.8764C15.4047 12.4074 16.1007 13.6042 16.1007 14.6598V20.2067C16.1007 21.2634 15.4047 22.4602 14.482 22.9901L8.27539 26.5616L8.31796 24.3987Z" fill="url(#paint1_linear)"/>
<path d="M8.27442 26.5626L2.55735 29.8528C2.20935 30.053 1.8688 30.6398 1.8688 31.038V37.906C1.8688 38.4169 1.45055 38.831 0.934398 38.831C0.418244 38.831 0 38.4159 0 37.9049V31.037C0 29.9813 0.696009 28.7835 1.61764 28.2535L8.31699 24.3987L8.27442 26.5626Z" fill="url(#paint2_linear)"/>
<path d="M8.35708 10.4921L0.464722 5.95036C0.0188078 5.6933 -0.132313 5.12755 0.126296 4.68612C0.385969 4.24469 0.957462 4.09509 1.40338 4.3511L8.31345 8.32712L8.35708 10.4921Z" fill="#C8D400"/>
<path d="M6.50586 9.42279L15.3188 4.3511C15.7647 4.09509 16.3362 4.24469 16.5959 4.68612C16.8545 5.12755 16.7034 5.6933 16.2574 5.95036L8.33741 10.5079L6.50586 9.42279Z" fill="#FFED00"/>
<path d="M8.33404 24.3586L15.1036 28.2535C16.0263 28.7845 16.7213 29.9813 16.7213 31.037V37.9049C16.7213 38.4159 16.303 38.8299 15.7869 38.8299C15.2707 38.8299 14.8525 38.4159 14.8525 37.9049V31.037C14.8525 30.6387 14.5109 30.0519 14.1639 29.8517L6.50781 25.4469L8.33404 24.3586Z" fill="url(#paint3_linear)"/>
<defs>
<linearGradient id="paint0_linear" x1="1.20678" y1="22.0939" x2="10.5284" y2="12.6776" gradientUnits="userSpaceOnUse">
<stop offset="0.4913" stop-color="#EC6608"/>
<stop offset="0.6029" stop-color="#FFED00"/>
</linearGradient>
<linearGradient id="paint1_linear" x1="4.36171" y1="22.6887" x2="14.8399" y2="12.1041" gradientUnits="userSpaceOnUse">
<stop offset="0.4388" stop-color="#007BC4"/>
<stop offset="0.4583" stop-color="#0E82B1"/>
<stop offset="0.4977" stop-color="#349581"/>
<stop offset="0.553" stop-color="#6FB433"/>
<stop offset="0.5592" stop-color="#76B82A"/>
</linearGradient>
<linearGradient id="paint2_linear" x1="-1.69454" y1="36.6106" x2="9.36628" y2="25.4374" gradientUnits="userSpaceOnUse">
<stop offset="0.4927" stop-color="#009FE3"/>
<stop offset="0.6029" stop-color="#007BC4"/>
</linearGradient>
<linearGradient id="paint3_linear" x1="6.82407" y1="25.135" x2="18.299" y2="36.7266" gradientUnits="userSpaceOnUse">
<stop offset="0.000454696" stop-color="#EC6608"/>
<stop offset="0.0466" stop-color="#E36016"/>
<stop offset="0.3154" stop-color="#B13C65"/>
<stop offset="0.4389" stop-color="#9D2E84"/>
<stop offset="0.5289" stop-color="#8A2482"/>
<stop offset="0.5597" stop-color="#831F82"/>
</linearGradient>
</defs>
</svg>
