<svg width="18" height="19" viewBox="0 0 18 19" fill="none" xmlns="http://www.w3.org/2000/svg">
<path fill-rule="evenodd" clip-rule="evenodd" d="M4.14701 3.44092H2.38233C1.89704 3.44092 1.49998 3.83797 1.49998 4.32326V16.6761C1.49998 17.1614 1.89704 17.5584 2.38233 17.5584H4.14701C4.6323 17.5584 5.02936 17.1614 5.02936 16.6761C5.02936 16.1908 4.6323 15.7937 4.14701 15.7937H3.26467V5.20561H4.14701C4.6323 5.20561 5.02936 4.80855 5.02936 4.32326C5.02936 3.83797 4.6323 3.44092 4.14701 3.44092ZM12.5587 6.26454C12.9505 5.97249 13.5019 6.0519 13.794 6.44101L16.441 9.97039C16.6704 10.2757 16.6775 10.6939 16.4569 11.0071L13.974 14.5365C13.8019 14.7809 13.5293 14.9115 13.2513 14.9115C13.0766 14.9115 12.8993 14.8595 12.7449 14.7509C12.3461 14.4703 12.2499 13.9198 12.5305 13.5209L14.0463 11.3663C14.0345 11.3674 14.0233 11.3708 14.0122 11.3741C13.9986 11.3781 13.985 11.3821 13.9705 11.3821H6.9117C6.42465 11.3821 6.02936 10.9869 6.02936 10.4998C6.02936 10.0119 6.42465 9.61745 6.9117 9.61745H13.9705H13.9713L12.3822 7.49894C12.0902 7.10983 12.1687 6.5566 12.5587 6.26454Z" fill="#333333"/>
</svg>
