<svg width="18" height="19" viewBox="0 0 18 19" fill="none" xmlns="http://www.w3.org/2000/svg">
<path fill-rule="evenodd" clip-rule="evenodd" d="M8 16.7476C8 17.2998 8.44772 17.7476 9 17.7476C9.55229 17.7476 10 17.2998 10 16.7476V10.7476H16C16.5523 10.7476 17 10.2998 17 9.74756C17 9.19527 16.5523 8.74756 16 8.74756H10V2.74756C10 2.19527 9.55228 1.74756 9 1.74756C8.44771 1.74756 8 2.19527 8 2.74756V8.74756H2C1.44772 8.74756 1 9.19527 1 9.74756C1 10.2998 1.44772 10.7476 2 10.7476H8V16.7476Z" fill="url(#paint0_linear)"/>
<defs>
<linearGradient id="paint0_linear" x1="1" y1="7.23776" x2="17.0116" y2="7.30952" gradientUnits="userSpaceOnUse">
<stop stop-color="#1EA013"/>
<stop offset="1" stop-color="#06A616"/>
</linearGradient>
</defs>
</svg>
