<svg width="16" height="16" viewBox="0 0 16 16" fill="none" xmlns="http://www.w3.org/2000/svg">
<g opacity="0.3">
<path d="M8.02996 0C12.4045 0 16 3.59551 16 8.02996C16 12.4045 12.4045 16 8.02996 16C3.59551 16 0 12.4045 0 8.02996C0 3.59551 3.59551 0 8.02996 0ZM8.02996 1.1985C4.25468 1.1985 1.1985 4.25468 1.1985 8.02996C1.1985 11.7453 4.25468 14.8015 8.02996 14.8015C11.7453 14.8015 14.8015 11.7453 14.8015 8.02996C14.8015 4.25468 11.7453 1.1985 8.02996 1.1985Z" fill="white"/>
<path d="M7.376 9.552C7.376 9.128 7.424 8.78 7.52 8.508C7.624 8.228 7.752 7.992 7.904 7.8C8.056 7.608 8.216 7.444 8.384 7.308C8.56 7.172 8.724 7.036 8.876 6.9C9.028 6.756 9.152 6.6 9.248 6.432C9.352 6.256 9.404 6.032 9.404 5.76C9.404 5.416 9.284 5.136 9.044 4.92C8.804 4.696 8.456 4.584 8 4.584C7.504 4.584 7.132 4.7 6.884 4.932C6.644 5.164 6.508 5.5 6.476 5.94H5.3C5.316 5.58 5.388 5.252 5.516 4.956C5.644 4.652 5.82 4.392 6.044 4.176C6.268 3.96 6.54 3.796 6.86 3.684C7.18 3.564 7.54 3.504 7.94 3.504C8.364 3.504 8.74 3.56 9.068 3.672C9.396 3.784 9.672 3.94 9.896 4.14C10.12 4.332 10.288 4.564 10.4 4.836C10.52 5.1 10.58 5.388 10.58 5.7C10.58 6.068 10.528 6.372 10.424 6.612C10.32 6.852 10.192 7.06 10.04 7.236C9.888 7.412 9.72 7.572 9.536 7.716C9.36 7.852 9.196 8.004 9.044 8.172C8.892 8.332 8.764 8.52 8.66 8.736C8.556 8.952 8.504 9.224 8.504 9.552H7.376ZM7.94 12.096C7.692 12.096 7.488 12.016 7.328 11.856C7.176 11.688 7.1 11.488 7.1 11.256C7.1 11.024 7.176 10.828 7.328 10.668C7.488 10.5 7.692 10.416 7.94 10.416C8.188 10.416 8.388 10.5 8.54 10.668C8.7 10.828 8.78 11.024 8.78 11.256C8.78 11.488 8.7 11.688 8.54 11.856C8.388 12.016 8.188 12.096 7.94 12.096Z" fill="white"/>
</g>
</svg>
