<svg width="18" height="18" viewBox="0 0 18 18" fill="none" xmlns="http://www.w3.org/2000/svg">
<path fill-rule="evenodd" clip-rule="evenodd" d="M4.51573 3.40014H13.3548C14.813 3.40014 16 4.66651 16 6.22327V8.20002C16 8.64241 15.6706 9 15.2632 9C14.8557 9 14.5263 8.64241 14.5263 8.20002V6.22327C14.5263 5.54969 14.001 5.0001 13.3548 5.0001H4.51573L5.46845 6.03447C5.75582 6.34727 5.75582 6.85285 5.46845 7.16565C5.32477 7.32164 5.13614 7.40004 4.94751 7.40004C4.75888 7.40004 4.57026 7.32164 4.42657 7.16565L2.21608 4.76571C1.92797 4.45291 1.92797 3.94733 2.21608 3.63453L4.42657 1.23459C4.71394 0.921802 5.18035 0.921802 5.46845 1.23459C5.75582 1.54739 5.75582 2.05297 5.46845 2.36577L4.51573 3.40014ZM12.5315 10.6051C12.8196 10.3314 13.2853 10.3314 13.5734 10.6051L15.7839 12.7051C16.072 12.9788 16.072 13.4212 15.7839 13.6949L13.5734 15.7949C13.4297 15.9314 13.2411 16 13.0525 16C12.8639 16 12.6752 15.9314 12.5315 15.7949C12.2434 15.5212 12.2434 15.0788 12.5315 14.8051L13.4843 13.9H4.64523C3.1863 13.9 2 12.7919 2 11.4297V9.7C2 9.3129 2.3301 9 2.73683 9C3.14356 9 3.47366 9.3129 3.47366 9.7V11.4297C3.47366 12.0198 3.99903 12.5 4.64523 12.5H13.4843L12.5315 11.5949C12.2434 11.3212 12.2434 10.8788 12.5315 10.6051Z" fill="black"/>
</svg>
