<svg width="100%" height="100%" viewBox="0 0 21 20" fill="none" xmlns="http://www.w3.org/2000/svg">
<path fill-rule="evenodd" clip-rule="evenodd" d="M10.5 0C4.97715 0 0.5 4.47715 0.5 10C0.5 15.5228 4.97715 20 10.5 20C16.0228 20 20.5 15.5228 20.5 10C20.5 4.47715 16.0228 0 10.5 0ZM7.83342 11.3333C7.09709 11.3333 6.5001 11.9303 6.5001 12.6667C6.5001 13.403 7.09709 14 7.83342 14C8.56974 14 9.16674 13.403 9.16674 12.6667C9.16674 11.9303 8.56974 11.3333 7.83342 11.3333ZM15.8333 14H14.0557C14.0557 9.83367 10.6664 6.44433 6.5001 6.44433V4.66667C11.6464 4.66667 15.8333 8.85367 15.8333 14ZM10.9446 14H12.7223C12.7223 10.569 9.93096 7.77767 6.5 7.77767V9.55567C8.95064 9.55567 10.9446 11.5493 10.9446 14Z" fill="white"/>
</svg>
