<svg width="32" height="32" viewBox="0 0 32 32" fill="none" xmlns="http://www.w3.org/2000/svg">
<path fill-rule="evenodd" clip-rule="evenodd" d="M16 32C24.8366 32 32 24.8366 32 16C32 7.16344 24.8366 0 16 0C7.16344 0 0 7.16344 0 16C0 24.8366 7.16344 32 16 32ZM13.0667 23.3333C13.4558 23.3333 13.6336 23.1602 13.8486 22.9509L13.8667 22.9333L15.7885 21.0646L19.7867 24.0185C20.5225 24.4245 21.0535 24.2143 21.2368 23.3354L23.8615 10.967C24.1302 9.88964 23.4508 9.401 22.7469 9.72057L7.33488 15.6634C6.28287 16.0853 6.289 16.6723 7.14312 16.9338L11.0982 18.1682L20.2546 12.3915C20.6868 12.1294 21.0836 12.2703 20.7579 12.5593L13.339 19.2543L13.3389 19.2543L13.3389 19.2544L13.3387 19.2547L13.3389 19.2548L13.0667 23.3333Z" fill="#2F59E7"/>
</svg>
