<svg width="100%" height="100%" viewBox="0 0 21 20" fill="none" xmlns="http://www.w3.org/2000/svg">
<path fill-rule="evenodd" clip-rule="evenodd" d="M10.5 20C16.0228 20 20.5 15.5228 20.5 10C20.5 4.47715 16.0228 0 10.5 0C4.97715 0 0.5 4.47715 0.5 10C0.5 15.5228 4.97715 20 10.5 20ZM8.66667 14.5833C8.90988 14.5833 9.02103 14.4751 9.15536 14.3443L9.16667 14.3333L10.3678 13.1654L12.8667 15.0116C13.3265 15.2653 13.6585 15.134 13.773 14.5846L15.4134 6.85438C15.5814 6.18103 15.1567 5.87563 14.7168 6.07536L5.0843 9.78961C4.42679 10.0533 4.43062 10.4202 4.96445 10.5836L7.43637 11.3551L13.1591 7.74472C13.4293 7.58089 13.6772 7.66897 13.4737 7.84958L8.8369 12.034L8.83683 12.0339L8.83683 12.034L8.83667 12.0342L8.83681 12.0343L8.66667 14.5833Z" fill="white"/>
</svg>
