<svg width="100%" height="100%" viewBox="0 0 21 20" fill="none" xmlns="http://www.w3.org/2000/svg">
<path fill-rule="evenodd" clip-rule="evenodd" d="M10.5 0C4.97715 0 0.5 4.47715 0.5 10C0.5 15.5228 4.97715 20 10.5 20C16.0228 20 20.5 15.5228 20.5 10C20.5 4.47715 16.0228 0 10.5 0ZM11.3142 12.8234C11.2156 12.9274 11.0231 12.9484 11.0231 12.9484H10.3856C10.3856 12.9484 8.97906 13.0313 7.74001 11.7654C6.38879 10.3843 5.19564 7.64397 5.19564 7.64397C5.19564 7.64397 5.12678 7.46422 5.20138 7.37768C5.28537 7.27987 5.5144 7.27372 5.5144 7.27372L7.03831 7.26399C7.03831 7.26399 7.18178 7.28704 7.28456 7.36129C7.36959 7.42274 7.41707 7.53694 7.41707 7.53694C7.41707 7.53694 7.66332 8.1484 7.98938 8.70147C8.62639 9.7815 8.92272 10.0176 9.1387 9.90185C9.45381 9.73337 9.35939 8.37526 9.35939 8.37526C9.35939 8.37526 9.36512 7.88262 9.20079 7.66292C9.07349 7.4929 8.8335 7.44323 8.7276 7.4294C8.64152 7.41814 8.78238 7.22251 8.96497 7.13494C9.23939 7.00333 9.72354 6.99565 10.2958 7.00128C10.7419 7.00589 10.8702 7.03303 11.0445 7.07451C11.4489 7.17031 11.4363 7.4773 11.409 8.13987C11.4009 8.33802 11.3914 8.56798 11.3914 8.8336C11.3914 8.89328 11.3897 8.95691 11.3878 9.02237C11.3784 9.36181 11.3676 9.75051 11.5954 9.89519C11.7123 9.96893 11.9977 9.90594 12.7119 8.71581C13.0505 8.15147 13.304 7.48829 13.304 7.48829C13.304 7.48829 13.3598 7.37 13.4459 7.3193C13.5341 7.26758 13.653 7.28345 13.653 7.28345L15.2568 7.27372C15.2568 7.27372 15.7388 7.21688 15.8166 7.43094C15.8985 7.65473 15.6366 8.1781 14.9813 9.03537C14.3597 9.84878 14.0572 10.1483 14.085 10.4131C14.1053 10.6067 14.3019 10.7817 14.6792 11.1253C15.4669 11.8431 15.678 12.2208 15.7288 12.3115C15.733 12.319 15.7361 12.3246 15.7383 12.3282C16.0915 12.9033 15.3465 12.9484 15.3465 12.9484L13.9217 12.9678C13.9217 12.9678 13.616 13.0272 13.2132 12.7558C13.0023 12.6138 12.7961 12.3817 12.5997 12.1608C12.2998 11.8233 12.0228 11.5115 11.7864 11.5851C11.3893 11.7091 11.4013 12.5484 11.4013 12.5484C11.4013 12.5484 11.4045 12.7282 11.3142 12.8234Z" fill="white"/>
</svg>
