<svg width="16" height="16" viewBox="0 0 16 16" fill="none" xmlns="http://www.w3.org/2000/svg">
<path d="M8 12C7.59236 12 7.38854 11.784 7.38854 11.352V6.05049H5.52548C5.17516 6.05049 5 5.87377 5 5.52034C5 5.17345 5.17516 5 5.52548 5H10.4745C10.8248 5 11 5.17345 11 5.52034C11 5.87377 10.8248 6.05049 10.4745 6.05049H8.61147V11.352C8.61147 11.784 8.40764 12 8 12Z" fill="black"/>
<path d="M7.75345 0.714475C7.90639 0.62779 8.09361 0.62779 8.24655 0.714475L11.23 2.40549L14.1862 4.14372C14.3377 4.23282 14.4313 4.39497 14.4327 4.57076L14.46 8L14.4327 11.4292C14.4313 11.605 14.3377 11.7672 14.1862 11.8563L11.23 13.5945L8.24655 15.2855C8.09361 15.3722 7.90639 15.3722 7.75345 15.2855L4.77003 13.5945L1.81383 11.8563C1.66229 11.7672 1.56867 11.605 1.56728 11.4292L1.54002 8L1.56728 4.57076C1.56867 4.39497 1.66229 4.23282 1.81383 4.14372L4.77 2.40549L7.75345 0.714475L7.5069 0.279489L7.75345 0.714475Z" stroke="black" stroke-linecap="round" stroke-linejoin="round"/>
</svg>
