<svg width="22" height="22" viewBox="0 0 22 22" fill="none" xmlns="http://www.w3.org/2000/svg">
<path d="M8.25 5.5V5.5C8.25 3.98122 9.48122 2.75 11 2.75V2.75C12.5188 2.75 13.75 3.98122 13.75 5.5V5.5M8.25 5.5H13.75M8.25 5.5H4.58333M13.75 5.5H17.4167M19.25 5.5H17.4167M2.75 5.5H4.58333M4.58333 5.5V17.25C4.58333 18.3546 5.47876 19.25 6.58333 19.25H15.4167C16.5212 19.25 17.4167 18.3546 17.4167 17.25V5.5M9.16667 9.16667V15.5833M12.8333 15.5833V9.16667" stroke="url(#paint0_linear)" stroke-width="2" stroke-linecap="round" stroke-linejoin="round"/>
<defs>
<linearGradient id="paint0_linear" x1="2.75" y1="8.41177" x2="19.262" y2="8.48577" gradientUnits="userSpaceOnUse">
<stop stop-color="#1EA013"/>
<stop offset="1" stop-color="#06A616"/>
</linearGradient>
</defs>
</svg>
