<svg width="247" height="135" viewBox="0 0 247 135" fill="none" xmlns="http://www.w3.org/2000/svg">
<path d="M113.343 38.6355V51.0148H111.862V38.6355H107.843V37.3313H117.36V38.6376L113.343 38.6355Z" fill="#333333"/>
<path d="M120.828 51.0148V37.3313H129.447V38.6376H122.311V43.4611H128.384V44.7696H122.311V49.7106H129.447V51.0148H120.828Z" fill="#333333"/>
<path d="M141.208 51.0148V38.6355H134.637V51.0148H133.155V37.3313H142.698V51.0148H141.208Z" fill="#333333"/>
<path d="M155.484 51.0148V38.6355H150.764V43.3178C150.764 49.0905 149.361 51.0148 146.708 51.0148H146.014V49.7084H146.385C148.101 49.7084 149.328 48.5753 149.328 42.8838V37.3313H156.971V51.0148H155.484Z" fill="#333333"/>
<path d="M169.967 51.0148V39.8456L162.908 51.0148H161.504V37.3313H162.986V48.4791L170.045 37.3313H171.448V51.0148H169.967Z" fill="#333333"/>
<path d="M185.717 54.3223V51.0148H175.988V37.3313H177.463V49.7106H184.034V37.3313H185.516V49.7106H187.175V54.3245L185.717 54.3223Z" fill="#333333"/>
<path d="M199.761 51.0148L198.65 47.921H192.577L191.473 51.0148H189.894L195.004 37.3313H196.251L201.339 51.0148H199.761ZM195.64 39.4244L193.037 46.651H198.225L195.64 39.4244Z" fill="#333333"/>
<path d="M113.579 75.4206C112.922 75.4282 112.269 75.3064 111.66 75.0622C111.051 74.8181 110.497 74.4565 110.031 73.9988C108.73 72.7159 108.73 71.3647 108.73 68.4634C108.73 65.562 108.73 64.2129 110.031 62.9258C110.497 62.4684 111.051 62.1071 111.66 61.863C112.269 61.6189 112.922 61.4969 113.579 61.504C116.076 61.504 117.917 63.0007 118.396 65.5791H116.878C116.507 63.9051 115.317 62.7997 113.582 62.7997C113.137 62.7948 112.696 62.8774 112.284 63.0426C111.872 63.2078 111.498 63.4523 111.183 63.7618C110.315 64.6448 110.209 65.5877 110.209 68.4527C110.209 71.3177 110.307 72.2563 111.183 73.1414C111.498 73.4509 111.872 73.6954 112.284 73.8606C112.696 74.0258 113.137 74.1084 113.582 74.1035C115.317 74.1035 116.546 73.0067 116.917 71.3348H118.399C117.947 73.9218 116.056 75.4206 113.579 75.4206Z" fill="#333333"/>
<path d="M131.635 68.4634C131.635 71.1915 131.594 72.7395 130.334 73.9988C129.384 74.9105 128.11 75.4207 126.784 75.4207C125.459 75.4207 124.185 74.9105 123.235 73.9988C121.968 72.7501 121.934 71.1915 121.934 68.4634V67.3943C121.934 65.7609 122.051 64.0868 123.235 62.9151C124.185 62.0034 125.459 61.4932 126.784 61.4932C128.11 61.4932 129.384 62.0034 130.334 62.9151C131.542 64.106 131.635 65.8378 131.635 67.5098V68.4634ZM130.151 67.7322C130.151 66.1179 130.093 64.694 129.178 63.7917C128.863 63.4807 128.489 63.2339 128.078 63.0655C127.666 62.8971 127.225 62.8104 126.779 62.8104C126.333 62.8104 125.892 62.8971 125.48 63.0655C125.069 63.2339 124.695 63.4807 124.38 63.7917C123.404 64.7517 123.404 66.1757 123.404 68.0678V69.4298C123.404 70.9114 123.482 72.2584 124.38 73.1414C124.695 73.4525 125.069 73.6993 125.48 73.8677C125.892 74.0361 126.333 74.1228 126.779 74.1228C127.225 74.1228 127.666 74.0361 128.078 73.8677C128.489 73.6993 128.863 73.4525 129.178 73.1414C130.132 72.2007 130.151 70.719 130.151 69.1433V67.7322Z" fill="#333333"/>
<path d="M145.477 78.6127V75.3051H135.745V61.6216H137.226V73.9988H143.798V61.6174H145.281V73.9988H146.938V78.6127H145.477Z" fill="#333333"/>
<path d="M158.986 75.3051V64.136L151.927 75.3051H150.523V61.6216H152.005V72.7715L159.062 61.6216H160.468V75.3051H158.986Z" fill="#333333"/>
<path d="M173.641 75.3051L172.529 72.2114H166.456L165.345 75.3051H163.764L168.874 61.6216H170.121L175.211 75.3051H173.641ZM169.52 63.7148L166.918 70.9414H172.106L169.52 63.7148Z" fill="#333333"/>
<path d="M187.131 75.3051V62.9258H182.412V67.6167C182.412 73.3894 181.009 75.3137 178.356 75.3137H177.653V73.9988H178.024C179.74 73.9988 180.97 72.8656 180.97 67.1741V61.6152H188.613V75.2987L187.131 75.3051Z" fill="#333333"/>
<path d="M198.357 75.3051H193.152V61.6216H194.633V67.2554H198.357C200.96 67.2554 202.647 68.8717 202.647 71.292C202.647 73.7123 200.932 75.3051 198.357 75.3051ZM198.223 68.5574H194.633V73.9988H198.223C200.075 73.9988 201.149 72.9982 201.149 71.2877C201.149 69.5773 200.075 68.5574 198.223 68.5574Z" fill="#333333"/>
<path d="M214.292 75.3051V69.0577H207.701V75.3051H206.217V61.6216H207.701V67.7557H214.292V61.6174H215.773V75.3008L214.292 75.3051Z" fill="#333333"/>
<path d="M225.52 75.3051H220.315V61.6216H221.796V67.2554H225.522C228.125 67.2554 229.81 68.8717 229.81 71.292C229.81 73.7123 228.092 75.3051 225.52 75.3051ZM221.794 68.5574V73.9988H225.394C227.246 73.9988 228.318 72.9982 228.318 71.2877C228.318 69.5773 227.235 68.5574 225.394 68.5574H221.794ZM231.673 75.3051V61.6216H233.154V75.3051H231.673Z" fill="#333333"/>
<path d="M244.933 75.3051L241.558 69.558L238.166 75.3051H236.488L240.741 68.2902L236.761 61.6174H238.479L241.558 67.0202L244.64 61.6174H246.356L242.359 68.2902L246.649 75.3051H244.933Z" fill="#333333"/>
<path d="M113.343 86.5298V98.907H111.862V86.5298H107.843V85.2235H117.36V86.5298H113.343Z" fill="#333333"/>
<path d="M120.828 98.907V85.2235H129.447V86.5298H122.311V91.3575H128.384V92.6639H122.311V97.6049H129.447V98.907H120.828Z" fill="#333333"/>
<path d="M140.757 98.907L137.382 93.1621L133.99 98.907H132.312L136.565 91.8899L132.585 85.2235H134.303L137.382 90.6263L140.464 85.2235H142.18L138.183 91.8942L142.473 98.907H140.757Z" fill="#333333"/>
<path d="M153.87 98.907V92.6639H147.279V98.907H145.798V85.2235H147.279V91.3575H153.87V85.2235H155.351V98.907H153.87Z" fill="#333333"/>
<path d="M169.199 92.0652C169.199 94.7955 169.158 96.3413 167.898 97.6028C166.948 98.5145 165.675 99.0247 164.349 99.0247C163.023 99.0247 161.749 98.5145 160.799 97.6028C159.531 96.352 159.498 94.7955 159.498 92.0652V91.009C159.498 89.3734 159.615 87.7015 160.799 86.5192C161.749 85.6074 163.023 85.0972 164.349 85.0972C165.675 85.0972 166.948 85.6074 167.898 86.5192C169.106 87.71 169.199 89.4419 169.199 91.1159V92.0652ZM167.716 91.334C167.716 89.7198 167.66 88.2959 166.742 87.3936C166.427 87.0825 166.054 86.8357 165.642 86.6673C165.23 86.4989 164.789 86.4122 164.343 86.4122C163.898 86.4122 163.456 86.4989 163.045 86.6673C162.633 86.8357 162.259 87.0825 161.945 87.3936C160.969 88.3536 160.969 89.7775 160.969 91.6697V93.0359C160.969 94.5154 161.047 95.8603 161.945 96.7454C162.259 97.0565 162.633 97.3033 163.045 97.4717C163.456 97.6401 163.898 97.7268 164.343 97.7268C164.789 97.7268 165.23 97.6401 165.642 97.4717C166.054 97.3033 166.427 97.0565 166.742 96.7454C167.699 95.8025 167.716 94.3209 167.716 92.7473V91.334Z" fill="#333333"/>
<path d="M181.15 98.907V86.5298H176.43V91.2207C176.43 96.9934 175.027 98.9177 172.375 98.9177H171.674V97.6113H172.043C173.758 97.6113 174.988 96.476 174.988 90.7867V85.2235H182.631V98.907H181.15Z" fill="#333333"/>
<path d="M196.486 92.0652C196.486 94.7955 196.447 96.3413 195.184 97.6028C194.234 98.5145 192.961 99.0247 191.635 99.0247C190.309 99.0247 189.036 98.5145 188.086 97.6028C186.817 96.352 186.784 94.7955 186.784 92.0652V91.009C186.784 89.3734 186.899 87.7015 188.086 86.5192C189.036 85.6074 190.309 85.0972 191.635 85.0972C192.961 85.0972 194.234 85.6074 195.184 86.5192C196.392 87.71 196.486 89.4419 196.486 91.1159V92.0652ZM195.004 91.334C195.004 89.7198 194.946 88.2959 194.028 87.3936C193.714 87.0825 193.34 86.8357 192.928 86.6673C192.516 86.4989 192.075 86.4122 191.63 86.4122C191.184 86.4122 190.743 86.4989 190.331 86.6673C189.919 86.8357 189.545 87.0825 189.231 87.3936C188.257 88.3536 188.257 89.7775 188.257 91.6697V93.0359C188.257 94.5154 188.335 95.8603 189.231 96.7454C189.545 97.0565 189.919 97.3033 190.331 97.4717C190.743 97.6401 191.184 97.7268 191.63 97.7268C192.075 97.7268 192.516 97.6401 192.928 97.4717C193.34 97.3033 193.714 97.0565 194.028 96.7454C194.985 95.8025 195.004 94.3209 195.004 92.7473V91.334Z" fill="#333333"/>
<path d="M202.168 86.5298V98.907H200.687V85.2235H209.032V86.5298H202.168Z" fill="#333333"/>
<path d="M220.976 98.907V87.7421L213.917 98.907H212.511V85.2235H213.992V96.3734L221.056 85.2235H222.462V98.907H220.976Z" fill="#333333"/>
<path d="M235.458 98.907V87.7421L228.4 98.907H226.995V85.2235H228.476V96.3734L235.536 85.2235H236.939V98.907H235.458ZM231.968 84.3683C230.348 84.3683 229.237 83.6584 229.12 81.9459H230.367C230.445 82.8887 231.018 83.3677 231.968 83.3677C232.918 83.3677 233.486 82.8887 233.566 81.9459H234.816C234.698 83.6478 233.586 84.3683 231.968 84.3683Z" fill="#333333"/>
<path d="M10.7778 25.4378C10.7773 26.0698 10.6081 26.6905 10.2873 27.2374L20.0151 32.7827C20.3346 32.2351 20.7944 31.7802 21.3485 31.464C21.9025 31.1477 22.5311 30.9812 23.171 30.9812C23.8109 30.9812 24.4395 31.1477 24.9935 31.464C25.5476 31.7802 26.0074 32.2351 26.3268 32.7827L36.0547 27.2331C35.7327 26.6867 35.5631 26.0658 35.5631 25.4335C35.5631 24.8013 35.7327 24.1804 36.0547 23.634L33.4732 22.1573C33.0395 22.8874 32.7558 23.6949 32.6384 24.5334C32.521 25.3719 32.5723 26.2251 32.7891 27.044L27.809 29.8996C26.5721 28.7023 24.9093 28.0318 23.1774 28.0318C21.4456 28.0318 19.7828 28.7023 18.5459 29.8996L13.5615 27.0483C13.8458 25.9872 13.8458 24.8714 13.5615 23.8103L18.5351 20.976C19.2574 21.6759 20.1324 22.203 21.093 22.5169C22.0536 22.8308 23.0742 22.9232 24.0766 22.787C25.0789 22.6508 26.0364 22.2896 26.8754 21.7311C27.7145 21.1726 28.4129 20.4317 28.9169 19.5653L26.3354 18.0886C26.016 18.6363 25.5562 19.0911 25.0021 19.4074C24.4481 19.7236 23.8195 19.8902 23.1796 19.8902C22.5397 19.8902 21.9111 19.7236 21.3571 19.4074C20.803 19.0911 20.3432 18.6363 20.0238 18.0886L10.2852 23.6361C10.6082 24.1829 10.7783 24.8047 10.7778 25.4378Z" fill="url(#paint0_linear)"/>
<path d="M33.461 10.4117L36.0425 8.93506C36.3619 9.48365 36.8221 9.93937 37.3768 10.2563C37.9314 10.5731 38.5608 10.74 39.2015 10.74C39.8423 10.74 40.4717 10.5731 41.0263 10.2563C41.581 9.93937 42.0412 9.48365 42.3606 8.93506L44.9421 10.4117C44.0741 11.8922 42.6568 12.9811 40.9903 13.4478V19.1206C42.6553 19.5868 44.0716 20.674 44.9399 22.1525L42.3585 23.6291C42.0391 23.0815 41.5792 22.6267 41.0252 22.3104C40.4711 21.9941 39.8425 21.8276 39.2026 21.8276C38.5627 21.8276 37.9341 21.9941 37.3801 22.3104C36.8261 22.6267 36.3662 23.0815 36.0468 23.6291L33.4653 22.1525C34.3327 20.6736 35.7482 19.5857 37.4128 19.1185V13.4457C35.7472 12.9785 34.3303 11.8907 33.461 10.4117ZM49.5048 13.0038C48.9173 13.9985 48.6076 15.1294 48.6076 16.281C48.6076 17.4327 48.9173 18.5636 49.5048 19.5583L52.0863 18.0817C51.7644 17.5349 51.5948 16.9136 51.5948 16.281C51.5948 15.6485 51.7644 15.0272 52.0863 14.4804L49.5048 13.0038ZM26.8137 16.2842C26.8142 16.9164 26.6449 17.5373 26.3232 18.0838L28.9047 19.5583C29.4919 18.5639 29.8013 17.4333 29.8013 16.2821C29.8013 15.1309 29.4919 14.0003 28.9047 13.0059L26.3232 14.4931C26.6435 15.0372 26.8126 15.655 26.8137 16.2842Z" fill="url(#paint1_linear)"/>
<path d="M48.6035 34.572C48.6046 33.4232 48.9134 32.2951 49.4984 31.3022L52.0799 32.7788C51.7587 33.3256 51.5896 33.9464 51.5896 34.5784C51.5896 35.2105 51.7587 35.8313 52.0799 36.378L49.4984 37.8546C48.9104 36.8583 48.6015 35.7253 48.6035 34.572ZM39.2069 29.0331C38.567 29.0333 37.9383 28.8668 37.3842 28.5505C36.8301 28.2342 36.3703 27.7792 36.0511 27.2314L26.3232 32.781C26.645 33.3279 26.8144 33.9491 26.8144 34.5816C26.8144 35.2141 26.645 35.8354 26.3232 36.3822L28.9047 37.8589C29.7795 36.3839 30.0256 34.6262 29.5888 32.9722L34.5667 30.1336C35.3611 30.8969 36.3356 31.4526 37.4021 31.7505V42.7116L39.2026 43.7378L41.001 42.7116V31.7399C42.6664 31.2732 44.0828 30.1852 44.9507 28.7059L42.3692 27.2292C42.0496 27.7782 41.5888 28.2342 41.0335 28.5509C40.4783 28.8676 39.8482 29.034 39.2069 29.0331Z" fill="url(#paint2_linear)"/>
<path d="M1.3799 40.4559L3.96137 41.9325C4.28034 41.3834 4.74041 40.9271 5.2951 40.6098C5.84979 40.2925 6.47944 40.1254 7.12044 40.1254C7.76145 40.1254 8.3911 40.2925 8.94578 40.6098C9.50047 40.9271 9.96054 41.3834 10.2795 41.9325L12.861 40.4559C11.9934 38.9745 10.5761 37.8849 8.90918 37.4176V31.7469C9.98001 31.45 10.958 30.8918 11.7531 30.1237L16.7267 32.9622C16.5092 33.7829 16.4577 34.6378 16.5751 35.4781C16.6924 36.3185 16.9765 37.1277 17.4108 37.8595L19.9923 36.3723C19.6705 35.8258 19.5011 35.2049 19.5011 34.5727C19.5011 33.9405 19.6705 33.3196 19.9923 32.7731L10.2645 27.2278C9.94519 27.7759 9.48525 28.2312 8.93101 28.5478C8.37676 28.8645 7.74781 29.0312 7.10753 29.0312C6.46726 29.0312 5.8383 28.8645 5.28406 28.5478C4.72982 28.2312 4.26988 27.7759 3.95061 27.2278L1.36914 28.7044C2.23843 30.1895 3.66008 31.2811 5.3317 31.7469V37.4197C3.66517 37.8865 2.24792 38.9753 1.3799 40.4559Z" fill="url(#paint3_linear)"/>
<path d="M13.7717 43.7299C13.7713 44.8827 13.461 46.0148 12.8725 47.0103L10.291 45.5337C10.613 44.9869 10.7825 44.3656 10.7825 43.733C10.7825 43.1005 10.613 42.4792 10.291 41.9324L12.8725 40.4558C13.4606 41.4492 13.7709 42.5791 13.7717 43.7299ZM23.1682 49.2731C23.8087 49.2729 24.438 49.4396 24.9924 49.7563C25.5469 50.073 26.0069 50.5285 26.3262 51.0769L39.2099 43.7299L37.4094 42.7036L27.8084 48.1853C27.0854 47.4862 26.2098 46.9599 25.2489 46.6469C24.288 46.3339 23.2673 46.2424 22.265 46.3794C21.2627 46.5164 20.3055 46.8783 19.4668 47.4374C18.6281 47.9964 17.9302 48.7378 17.4266 49.6045L20.0081 51.0812C20.327 50.5317 20.7872 50.0751 21.3421 49.7576C21.897 49.4401 22.527 49.273 23.1682 49.2731ZM23.1682 41.1442C24.3336 41.1425 25.4779 40.8381 26.4865 40.2616C27.495 39.685 28.3323 38.8566 28.9142 37.8594L26.3327 36.3828C26.0133 36.9304 25.5534 37.3853 24.9994 37.7016C24.4454 38.0178 23.8168 38.1843 23.1769 38.1843C22.5369 38.1843 21.9083 38.0178 21.3543 37.7016C20.8003 37.3853 20.3404 36.9304 20.021 36.3828L17.4395 37.8701C18.0212 38.8629 18.8563 39.6877 19.8615 40.2622C20.8667 40.8367 22.0069 41.1408 23.1682 41.1442Z" fill="url(#paint4_linear)"/>
<path d="M3.48087 43.724C3.48064 43.0935 3.6491 42.4742 3.96919 41.9287L1.38772 40.452C0.800575 41.4469 0.491211 42.5778 0.491211 43.7293C0.491211 44.8808 0.800575 46.0117 1.38772 47.0066L3.96919 45.5193C3.64862 44.974 3.48013 44.3545 3.48087 43.724Z" fill="#B70E0C"/>
<path d="M20.0173 54.6757L10.2916 60.2231C9.97293 59.673 9.51273 59.2158 8.9576 58.8978C8.40247 58.5798 7.77213 58.4123 7.13039 58.4123C6.48865 58.4123 5.85831 58.5798 5.30318 58.8978C4.74805 59.2158 4.28785 59.673 3.96917 60.2231L1.3877 58.7465C1.89056 57.8787 2.58813 57.1363 3.42682 56.5764C4.26551 56.0164 5.223 55.6538 6.22574 55.5163C7.22848 55.3788 8.24978 55.4702 9.21118 55.7834C10.1726 56.0966 11.0485 56.6233 11.7717 57.323L16.7496 54.4866C16.3145 52.8326 16.5597 51.0759 17.4315 49.5999L20.013 51.0765C19.6913 51.6234 19.5218 52.2446 19.5218 52.8771C19.5218 53.5096 19.6913 54.1309 20.013 54.6778L20.0173 54.6757ZM7.13146 50.2904C8.29587 50.2894 9.43953 49.986 10.4477 49.4106C11.4558 48.8352 12.293 48.008 12.8752 47.012L10.2938 45.5248C9.9745 46.072 9.51492 46.5264 8.96128 46.8424C8.40765 47.1584 7.7795 47.3248 7.14007 47.3248C6.50064 47.3248 5.87249 47.1584 5.31886 46.8424C4.76522 46.5264 4.30564 46.072 3.98637 45.5248L1.40491 47.0014C1.98445 47.9967 2.81837 48.8243 3.82331 49.4015C4.82824 49.9786 5.96898 50.2852 7.13146 50.2904Z" fill="#E5005B"/>
<path d="M73.0876 37.414V31.7412C74.7537 31.2735 76.1701 30.1839 77.0372 28.7029L74.4557 27.2263C74.1368 27.7755 73.6767 28.2317 73.122 28.549C72.5673 28.8663 71.9377 29.0334 71.2967 29.0334C70.6557 29.0334 70.026 28.8663 69.4713 28.549C68.9166 28.2317 68.4566 27.7755 68.1376 27.2263L58.4141 32.7738C58.7358 33.3207 58.9053 33.9419 58.9053 34.5744C58.9053 35.2069 58.7358 35.8282 58.4141 36.3751L60.9955 37.8517C61.4316 37.1206 61.717 36.3115 61.8351 35.471C61.9532 34.6305 61.9019 33.7752 61.6839 32.9544L66.6533 30.1116C67.4483 30.8783 68.4254 31.4356 69.495 31.7327V37.4076C67.8297 37.8744 66.4133 38.9623 65.5454 40.4416L68.1268 41.9183C68.4461 41.3701 68.9061 40.9148 69.4603 40.5982C70.0145 40.2816 70.6435 40.1149 71.2838 40.1149C71.924 40.1149 72.553 40.2816 73.1072 40.5982C73.6615 40.9148 74.1214 41.3701 74.4407 41.9183L77.0222 40.4416C76.1565 38.9678 74.7462 37.8826 73.0876 37.414Z" fill="url(#paint5_linear)"/>
<path d="M74.9348 43.7253C74.9343 44.3573 74.7652 44.978 74.4443 45.5249L77.0258 47.0015C77.6134 46.0064 77.9229 44.8751 77.9229 43.7232C77.9229 42.5712 77.6134 41.4399 77.0258 40.4448L74.4443 41.9215C74.7658 42.4696 74.935 43.0918 74.9348 43.7253Z" fill="#00A8B0"/>
<path d="M68.1273 45.5156L65.5459 46.9922C64.9583 45.9975 64.6487 44.8665 64.6487 43.7149C64.6487 42.5633 64.9583 41.4324 65.5459 40.4377L68.1273 41.9143C67.8054 42.4611 67.6358 43.0824 67.6358 43.7149C67.6358 44.3475 67.8054 44.9687 68.1273 45.5156ZM50.6056 48.1629L40.9961 42.6898L39.2041 43.7202L52.0856 51.0652C52.4043 50.516 52.8642 50.0596 53.4187 49.7423C53.9732 49.4249 54.6027 49.2578 55.2436 49.2578C55.8845 49.2578 56.5141 49.4249 57.0686 49.7423C57.6231 50.0596 58.083 50.516 58.4016 51.0652L60.9831 49.5885C60.116 48.1076 58.6995 47.018 57.0335 46.5503V40.8732C58.6965 40.4066 60.111 39.3203 60.9788 37.8435L58.3973 36.3668C58.0776 36.9135 57.6179 37.3674 57.0643 37.683C56.5107 37.9985 55.8828 38.1647 55.2436 38.1647C54.6045 38.1647 53.9765 37.9985 53.423 37.683C52.8694 37.3674 52.4096 36.9135 52.0899 36.3668L49.5085 37.8435C50.3762 39.3203 51.7908 40.4066 53.4538 40.8732V46.5503C52.3832 46.845 51.4041 47.3993 50.6056 48.1629Z" fill="url(#paint6_linear)"/>
<path d="M77.0335 58.7429L74.452 60.2195C74.1328 59.6714 73.6728 59.2161 73.1186 58.8995C72.5643 58.5829 71.9354 58.4161 71.2951 58.4161C70.6548 58.4161 70.0259 58.5829 69.4716 58.8995C68.9174 59.2161 68.4575 59.6714 68.1382 60.2195L58.4082 54.6721C58.7299 54.1252 58.8994 53.5039 58.8994 52.8714C58.8994 52.2389 58.7299 51.6177 58.4082 51.0708L60.9897 49.5941C61.4239 50.324 61.7079 51.1315 61.8253 51.9701C61.9427 52.8087 61.8912 53.662 61.6738 54.4808L66.656 57.3215C67.3788 56.6237 68.2538 56.0985 69.2139 55.7862C70.1739 55.4739 71.1936 55.3827 72.1949 55.5197C73.1961 55.6567 74.1523 56.0182 74.9903 56.5765C75.8282 57.1348 76.5257 57.8752 77.0292 58.7408L77.0335 58.7429ZM71.2876 50.2804C72.4525 50.2794 73.5967 49.9758 74.6052 49.4C75.6138 48.8242 76.4512 47.9965 77.0335 46.9999L74.452 45.5233C74.1323 46.0709 73.6722 46.5257 73.1181 46.8419C72.5639 47.1581 71.9351 47.3246 71.2951 47.3246C70.6551 47.3246 70.0264 47.1581 69.4722 46.8419C68.918 46.5257 68.4579 46.0709 68.1382 45.5233L65.5567 46.9999C66.1375 47.9951 66.9727 48.8222 67.9789 49.3983C68.985 49.9744 70.1267 50.2793 71.2897 50.2825L71.2876 50.2804Z" fill="url(#paint7_linear)"/>
<path d="M39.2067 55.4649C37.4753 55.4645 35.8126 56.1342 34.5751 57.3303L29.5951 54.4918C29.8791 53.4314 29.8791 52.3163 29.5951 51.256L39.2067 45.7722L48.8163 51.2475C48.5984 52.0686 48.547 52.9242 48.6652 53.7651C48.7833 54.6059 49.0686 55.4154 49.5046 56.1469L52.0861 54.6703C51.7642 54.1235 51.5946 53.5022 51.5946 52.8696C51.5946 52.2371 51.7642 51.6158 52.0861 51.069L39.2067 43.7262L26.3252 51.0754C26.6469 51.6223 26.8164 52.2435 26.8164 52.876C26.8164 53.5085 26.6469 54.1298 26.3252 54.6766L36.0552 60.2241C36.3745 59.676 36.8344 59.2207 37.3886 58.904C37.9429 58.5874 38.5718 58.4207 39.2121 58.4207C39.8524 58.4207 40.4813 58.5874 41.0356 58.904C41.5898 59.2207 42.0498 59.676 42.369 60.2241L44.9505 58.7369C44.3673 57.7422 43.5297 56.9164 42.5217 56.3422C41.5136 55.768 40.3705 55.4654 39.2067 55.4649Z" fill="url(#paint8_linear)"/>
<path d="M60.9968 67.893L58.4153 69.3802C58.0966 68.8311 57.6368 68.3747 57.0823 68.0574C56.5278 67.74 55.8982 67.5729 55.2573 67.5729C54.6164 67.5729 53.9869 67.74 53.4324 68.0574C52.8779 68.3747 52.418 68.8311 52.0993 69.3802L49.5179 67.9036C50.0986 66.9052 50.9358 66.0758 51.9448 65.499C52.9538 64.9222 54.099 64.6185 55.2649 64.6185C56.4307 64.6185 57.5759 64.9222 58.5849 65.499C59.594 66.0758 60.4311 66.9052 61.0119 67.9036L60.9968 67.893ZM67.6419 62.0205C67.6413 61.389 67.8105 60.7686 68.1324 60.223L58.4024 54.6755C58.0827 55.2222 57.623 55.6761 57.0694 55.9917C56.5158 56.3072 55.8879 56.4734 55.2487 56.4734C54.6095 56.4734 53.9816 56.3072 53.428 55.9917C52.8745 55.6761 52.4147 55.2222 52.095 54.6755L49.5136 56.1522C50.0179 57.0178 50.7163 57.7578 51.555 58.3156C52.3938 58.8734 53.3508 59.2341 54.3525 59.37C55.3543 59.506 56.3743 59.4137 57.3343 59.1001C58.2944 58.7865 59.169 58.2599 59.8911 57.5608L64.8669 60.3993C64.6493 61.2207 64.5978 62.0763 64.7152 62.9173C64.8326 63.7584 65.1165 64.5683 65.5509 65.3009L68.1324 63.8137C67.8134 63.2685 67.645 62.6501 67.6441 62.0205H67.6419ZM42.8577 62.0205C42.858 62.6526 42.6888 63.2735 42.3672 63.82L44.9487 65.2967C45.5377 64.3021 45.8482 63.1706 45.8482 62.0183C45.8482 60.8661 45.5377 59.7346 44.9487 58.74L42.3672 60.2272C42.6928 60.7726 42.8658 61.3937 42.8684 62.0268L42.8577 62.0205Z" fill="url(#paint9_linear)"/>
<path d="M23.1662 64.6038C21.9995 64.6049 20.8536 64.9097 19.8441 65.4875C18.8346 66.0652 17.9971 66.8956 17.416 67.8948L19.9975 69.3715C20.3162 68.8213 20.7764 68.3641 21.3315 68.0461C21.8866 67.7282 22.517 67.5607 23.1587 67.5607C23.8004 67.5607 24.4308 67.7282 24.9859 68.0461C25.5411 68.3641 26.0013 68.8213 26.3199 69.3715L28.9014 67.8948C28.3212 66.8981 27.486 66.0694 26.4795 65.4917C25.4729 64.9141 24.3304 64.6079 23.1662 64.6038Z" fill="url(#paint10_linear)"/>
<path d="M12.8703 65.3044C13.4597 64.3075 13.7707 63.1741 13.7717 62.0197C13.7677 61.474 13.6955 60.931 13.5566 60.4028L18.5367 57.5643C19.7743 58.7618 21.4378 59.4324 23.1704 59.4324C24.903 59.4324 26.5665 58.7618 27.8041 57.5643L32.7821 60.4007C32.5644 61.2217 32.5128 62.077 32.6301 62.9177C32.7475 63.7584 33.0316 64.568 33.4662 65.3001L36.0476 63.8235C35.7257 63.2767 35.5561 62.6554 35.5561 62.0229C35.5561 61.3903 35.7257 60.769 36.0476 60.2222L26.3241 54.6769C26.0044 55.2235 25.5447 55.6774 24.9911 55.993C24.4375 56.3086 23.8096 56.4747 23.1704 56.4747C22.5312 56.4747 21.9033 56.3086 21.3497 55.993C20.7961 55.6774 20.3364 55.2235 20.0167 54.6769L10.291 60.2265C10.613 60.7733 10.7825 61.3946 10.7825 62.0271C10.7825 62.6597 10.613 63.2809 10.291 63.8278L12.8703 65.3044Z" fill="url(#paint11_linear)"/>
<path d="M49.5008 19.5551L52.0823 18.0785C52.4017 18.6271 52.8619 19.0828 53.4166 19.3997C53.9712 19.7166 54.6006 19.8834 55.2414 19.8834C55.8821 19.8834 56.5115 19.7166 57.0662 19.3997C57.6208 19.0828 58.081 18.6271 58.4004 18.0785L68.1261 23.6238C67.8042 24.1703 67.6346 24.7912 67.6346 25.4234C67.6346 26.0556 67.8042 26.6766 68.1261 27.223L58.4026 32.7705C58.0836 32.2213 57.6235 31.7651 57.0689 31.4478C56.5142 31.1305 55.8845 30.9634 55.2435 30.9634C54.6025 30.9634 53.9729 31.1305 53.4182 31.4478C52.8635 31.7651 52.4034 32.2213 52.0845 32.7705L49.503 31.2959C50.0061 30.4287 50.7037 29.6868 51.5423 29.1273C52.3809 28.5678 53.3382 28.2055 54.3406 28.0683C55.343 27.931 56.364 28.0225 57.3251 28.3356C58.2861 28.6487 59.1618 29.1752 59.8848 29.8746L64.8606 27.0381C64.7206 26.5117 64.6484 25.9699 64.6455 25.4255C64.6484 24.8784 64.7206 24.3338 64.8606 23.8044L59.8869 20.9723C59.1644 21.6727 58.2888 22.2003 57.3276 22.5144C56.3663 22.8285 55.345 22.9207 54.342 22.7841C53.339 22.6474 52.3811 22.2855 51.5419 21.7261C50.7026 21.1667 50.0044 20.4248 49.5008 19.5572V19.5551ZM42.8665 25.434C42.8659 26.066 42.6967 26.6867 42.376 27.2336L44.9574 28.7102C45.545 27.7155 45.8546 26.5846 45.8546 25.433C45.8546 24.2814 45.545 23.1504 44.9574 22.1557L42.376 23.6323C42.6979 24.1795 42.8672 24.8012 42.8665 25.434Z" fill="url(#paint12_linear)"/>
<path d="M17.4199 13.0111C18.0008 12.0132 18.8379 11.1842 19.8467 10.6078C20.8555 10.0313 22.0004 9.72779 23.1658 9.72779C24.3313 9.72779 25.4762 10.0313 26.485 10.6078C27.4938 11.1842 28.3309 12.0132 28.9118 13.0111L26.3303 14.4983C26.0113 13.9501 25.5516 13.4947 24.9975 13.1781C24.4435 12.8614 23.8146 12.6946 23.1744 12.6946C22.5343 12.6946 21.9054 12.8614 21.3514 13.1781C20.7973 13.4947 20.3376 13.9501 20.0186 14.4983L17.4199 13.0111ZM33.4616 3.8623C32.8729 4.85625 32.5627 5.98701 32.5627 7.13852C32.5627 8.29002 32.8729 9.42078 33.4616 10.4147L36.0431 8.9381C35.7211 8.39127 35.5515 7.77 35.5515 7.13746C35.5515 6.50491 35.7211 5.88364 36.0431 5.33681L33.4616 3.8623Z" fill="url(#paint13_linear)"/>
<path d="M36.0536 5.33352C36.3728 4.78634 36.8324 4.33188 37.386 4.0159C37.9397 3.69991 38.5678 3.53354 39.2073 3.53354C39.8467 3.53354 40.4748 3.69991 41.0285 4.0159C41.5821 4.33188 42.0417 4.78634 42.361 5.33352L44.9424 3.84626C44.3615 2.84932 43.5248 2.02122 42.5166 1.44541C41.5084 0.86959 40.3644 0.566406 39.1997 0.566406C38.0351 0.566406 36.891 0.86959 35.8828 1.44541C34.8747 2.02122 34.0379 2.84932 33.457 3.84626L36.0536 5.33352Z" fill="#DEDC00"/>
<path d="M3.96878 23.6332C4.28805 23.0851 4.74799 22.6298 5.30223 22.3132C5.85648 21.9966 6.48543 21.8299 7.12571 21.8299C7.76598 21.8299 8.39494 21.9966 8.94918 22.3132C9.50342 22.6298 9.96336 23.0851 10.2826 23.6332L20.0105 18.0837C19.6887 17.5368 19.5193 16.9155 19.5193 16.283C19.5193 15.6505 19.6887 15.0293 20.0105 14.4824L17.429 13.0057C16.5553 14.4811 16.3093 16.2383 16.7449 17.8924L11.7519 20.7373C11.0289 20.04 10.154 19.5153 9.19405 19.2034C8.23412 18.8915 7.21465 18.8007 6.2137 18.9379C5.21274 19.075 4.25684 19.4366 3.41917 19.9949C2.5815 20.5532 1.88427 21.2933 1.38086 22.1587L3.96878 23.6332Z" fill="url(#paint14_linear)"/>
<path d="M3.48227 25.4342C3.48275 24.8022 3.65193 24.1814 3.97275 23.6346L1.39128 22.158C0.803728 23.1531 0.494141 24.2844 0.494141 25.4363C0.494141 26.5882 0.803728 27.7195 1.39128 28.7146L3.97275 27.2274C3.65303 26.6824 3.48389 26.064 3.48227 25.4342Z" fill="#EC6608"/>
<path d="M71.2897 18.8634C69.5578 18.8627 67.8947 19.5333 66.6582 20.731L61.6781 17.8924C61.8951 17.0733 61.946 16.2199 61.8279 15.3812C61.7098 14.5426 61.4249 13.7352 60.9897 13.0057L58.4082 14.4824C58.7293 15.0295 58.8984 15.6506 58.8984 16.283C58.8984 16.9154 58.7293 17.5365 58.4082 18.0837L68.1339 23.629C68.4535 23.0819 68.9133 22.6275 69.4671 22.3116C70.0209 21.9956 70.6491 21.8293 71.2887 21.8293C71.9282 21.8293 72.5565 21.9956 73.1103 22.3116C73.6641 22.6275 74.1239 23.0819 74.4434 23.629L77.0249 22.1524C76.4446 21.1558 75.6093 20.3274 74.6028 19.7502C73.5962 19.1729 72.4537 18.8671 71.2897 18.8634Z" fill="url(#paint15_linear)"/>
<path d="M74.9366 25.4326C74.9374 26.0638 74.7689 26.684 74.4482 27.23L77.0297 28.7067C77.6173 27.7119 77.9269 26.581 77.9269 25.4294C77.9269 24.2778 77.6173 23.1468 77.0297 22.1521L74.4482 23.6287C74.7701 24.1766 74.9386 24.7992 74.9366 25.4326Z" fill="#76B82A"/>
<path d="M60.9913 12.9959L58.4098 14.4725C58.0901 13.9259 57.6304 13.472 57.0768 13.1564C56.5232 12.8408 55.8953 12.6747 55.2561 12.6747C54.617 12.6747 53.989 12.8408 53.4355 13.1564C52.8819 13.472 52.4221 13.9259 52.1024 14.4725L49.521 12.9959C50.1019 11.9989 50.9386 11.1708 51.9468 10.595C52.955 10.0192 54.099 9.71601 55.2637 9.71601C56.4283 9.71601 57.5724 10.0192 58.5806 10.595C59.5887 11.1708 60.4255 11.9989 61.0064 12.9959H60.9913ZM42.8672 7.13183C42.8674 7.7623 42.6989 8.38163 42.3789 8.92716L44.9604 10.4038C45.548 9.40909 45.8576 8.27813 45.8576 7.12652C45.8576 5.97491 45.548 4.84395 44.9604 3.84924L42.3789 5.3365C42.6994 5.88184 42.8679 6.50129 42.8672 7.13183Z" fill="url(#paint16_linear)"/>
<path d="M58.4023 72.9677C58.7241 72.4212 58.8936 71.8003 58.8936 71.1681C58.8936 70.536 58.7241 69.9151 58.4023 69.3686L60.9838 67.8813C61.5727 68.876 61.883 70.0074 61.883 71.1596C61.883 72.3118 61.5727 73.4433 60.9838 74.438L58.4023 72.9677ZM77.0341 65.2956L74.4526 63.819C74.1334 64.3671 73.6734 64.8224 73.1192 65.139C72.5649 65.4556 71.936 65.6224 71.2957 65.6224C70.6554 65.6224 70.0265 65.4556 69.4722 65.139C68.918 64.8224 68.4581 64.3671 68.1388 63.819L65.5573 65.3062C66.1384 66.3036 66.9754 67.1321 67.984 67.7082C68.9925 68.2843 70.1371 68.5876 71.3022 68.5876C72.4673 68.5876 73.6118 68.2843 74.6204 67.7082C75.629 67.1321 76.466 66.3036 77.047 65.3062L77.0341 65.2956Z" fill="url(#paint17_linear)"/>
<path d="M74.9348 62.0172C74.9343 62.6492 74.7652 63.27 74.4443 63.8168L77.0258 65.2934C77.6134 64.2987 77.923 63.1678 77.923 62.0162C77.923 60.8646 77.6134 59.7336 77.0258 58.7389L74.4443 60.2155C74.7663 60.7627 74.9355 61.3844 74.9348 62.0172Z" fill="#0090D7"/>
<path d="M1.38615 65.3057L3.96762 63.8291C4.28762 64.3747 4.74722 64.8277 5.30035 65.1426C5.85349 65.4575 6.48072 65.6233 7.11917 65.6233C7.75761 65.6233 8.38485 65.4575 8.93798 65.1426C9.49112 64.8277 9.95072 64.3747 10.2707 63.8291L12.8522 65.3057C12.2705 66.3011 11.4338 67.1278 10.4261 67.7025C9.41842 68.2772 8.27528 68.5798 7.11164 68.5798C5.94799 68.5798 4.80486 68.2772 3.79716 67.7025C2.78947 67.1278 1.95274 66.3011 1.37109 65.3057H1.38615ZM19.521 71.1676C19.52 70.5383 19.687 69.9198 20.005 69.3744L17.4235 67.8978C16.8366 68.8927 16.5274 70.0236 16.5274 71.1751C16.5274 72.3266 16.8366 73.4574 17.4235 74.4524L20.005 72.9651C19.6852 72.4188 19.5175 71.7987 19.5188 71.1676H19.521Z" fill="url(#paint18_linear)"/>
<path d="M3.4817 62.0159C3.48069 61.3863 3.64843 60.7676 3.96788 60.2227L1.38641 58.7461C0.799474 59.741 0.490234 60.8719 0.490234 62.0234C0.490234 63.1748 0.799474 64.3057 1.38641 65.3006L3.96788 63.824C3.64662 63.2745 3.47885 62.6505 3.4817 62.0159Z" fill="url(#paint19_linear)"/>
<path d="M76.2499 97.4204H41.0064V81.3346L50.6094 75.8551C51.3317 76.5537 52.2063 77.0798 53.1662 77.393C54.1261 77.7062 55.1458 77.7983 56.1473 77.6621C57.1488 77.5259 58.1054 77.1651 58.9439 76.6074C59.7824 76.0497 60.4806 75.3098 60.9848 74.4444L58.4033 72.9571C58.1659 73.3699 57.8481 73.7322 57.4682 74.0232C57.0884 74.3141 56.6541 74.528 56.1902 74.6524C55.7263 74.7769 55.2421 74.8095 54.7654 74.7483C54.2887 74.6872 53.829 74.5335 53.4127 74.2961C52.9964 74.0587 52.6318 73.7423 52.3399 73.3652C52.0479 72.988 51.8344 72.5576 51.7116 72.0986C51.5888 71.6396 51.5591 71.1611 51.6244 70.6908C51.6896 70.2204 51.8484 69.7674 52.0916 69.358L49.5102 67.8813C49.0769 68.6116 48.7937 69.4191 48.6767 70.2576C48.5596 71.0961 48.6112 71.9492 48.8282 72.768L41.015 77.2298V68.3318C42.6792 67.8651 44.0946 66.7779 44.9625 65.2999L42.381 63.8232C42.0617 64.3714 41.6018 64.8267 41.0476 65.1433C40.4933 65.4599 39.8644 65.6266 39.2241 65.6266C38.5838 65.6266 37.9549 65.4599 37.4006 65.1433C36.8464 64.8267 36.3864 64.3714 36.0672 63.8232L33.4857 65.2999C34.354 66.7784 35.7703 67.8656 37.4353 68.3318V77.234L29.6221 72.7723C29.761 72.2456 29.8332 71.7039 29.8372 71.1597C29.8368 70.011 29.5288 68.8829 28.9445 67.8898L26.363 69.3665C26.8465 70.1931 26.9778 71.1756 26.7278 72.0978C26.4779 73.02 25.8673 73.8064 25.0303 74.284C24.1933 74.7615 23.1985 74.8911 22.2648 74.6443C21.331 74.3975 20.5348 73.7944 20.0513 72.9677L17.4698 74.455C17.9762 75.3128 18.6737 76.0456 19.5094 76.5976C20.3451 77.1497 21.2971 77.5066 22.2933 77.6414C23.2894 77.7761 24.3035 77.6851 25.2587 77.3752C26.2139 77.0654 27.0852 76.5448 27.8065 75.853L37.4138 81.3346V97.4204H2.16601C1.84821 97.4204 1.54344 97.545 1.31873 97.767C1.09402 97.9889 0.967773 98.2899 0.967773 98.6038C0.967773 98.9177 1.09402 99.2187 1.31873 99.4406C1.54344 99.6625 1.84821 99.7872 2.16601 99.7872H37.3471C37.1147 101.196 36.4111 102.487 35.3486 103.454C33.0705 105.564 29.0197 106.495 23.6331 106.146C21.432 105.98 19.2184 106.104 17.0503 106.514C16.9397 106.515 16.8302 106.537 16.7276 106.578L16.6997 106.59C10.53 107.961 8.09478 111.825 7.64733 114.432C7.60874 114.664 7.66472 114.902 7.80301 115.093C7.9413 115.284 8.15064 115.413 8.3852 115.452C8.43496 115.461 8.48532 115.465 8.53578 115.465C8.74807 115.464 8.95328 115.39 9.11509 115.254C9.27691 115.118 9.38489 114.93 9.41994 114.724C9.45436 114.53 9.99646 111.622 13.4535 109.65C13.1502 110.5 13.0706 111.435 12.9931 112.382C12.8834 113.74 12.7565 115.278 11.9283 116.959C11.8697 117.064 11.8335 117.18 11.8218 117.3C11.8101 117.42 11.8231 117.541 11.8601 117.655C11.8971 117.77 11.9572 117.876 12.0369 117.967C12.1167 118.058 12.2142 118.132 12.3238 118.184C12.4333 118.237 12.5525 118.267 12.6742 118.273C12.7958 118.278 12.9174 118.26 13.0315 118.217C13.1455 118.175 13.2498 118.111 13.3379 118.028C13.4259 117.945 13.496 117.845 13.5438 117.734C14.5205 115.754 14.6646 113.963 14.7829 112.525C14.9593 110.374 15.0561 109.185 17.3515 108.241C18.2338 108.067 19.1273 107.952 20.0255 107.899C18.9864 109.159 18.7563 110.899 18.5196 112.703C18.184 115.304 17.7667 118.537 14.9744 121.805C14.8978 121.895 14.84 121.999 14.8041 122.111C14.7682 122.223 14.7551 122.341 14.7654 122.458C14.7757 122.575 14.8092 122.689 14.8641 122.793C14.9189 122.898 14.9941 122.99 15.0852 123.066C15.1763 123.142 15.2816 123.199 15.3951 123.234C15.5085 123.27 15.628 123.283 15.7465 123.272C15.8651 123.262 15.9804 123.229 16.086 123.175C16.1916 123.121 16.2854 123.047 16.3619 122.957C19.4984 119.292 19.9545 115.767 20.318 112.935C20.7203 109.82 21.0172 108.409 23.6417 107.929C29.5554 108.288 33.9073 107.226 36.5791 104.753C36.8545 104.492 37.1124 104.215 37.3514 103.922C36.6157 106.032 35.1056 108.428 32.0013 111.012C30.4109 112.315 28.7045 113.475 26.9029 114.475C24.1193 116.1 22.1079 117.275 21.3807 121.346C21.3395 121.578 21.3931 121.816 21.5299 122.009C21.6666 122.202 21.8753 122.333 22.11 122.374C22.1617 122.385 22.2143 122.389 22.2671 122.389C22.4781 122.389 22.6823 122.315 22.8436 122.18C23.005 122.046 23.1131 121.86 23.1491 121.654C23.732 118.386 25.1841 117.541 27.8151 116.003L28.5766 115.556C27.985 116.94 27.686 118.318 27.4063 119.593C26.761 122.568 26.2102 125.117 22.6736 127.416C22.5108 127.52 22.3866 127.674 22.3195 127.854C22.2525 128.033 22.2462 128.23 22.3017 128.413C22.3572 128.597 22.4715 128.758 22.6273 128.872C22.7832 128.986 22.9723 129.047 23.1663 129.046C23.3404 129.045 23.5106 128.995 23.6567 128.901C27.8215 126.205 28.5078 123.031 29.1725 119.965C29.2478 119.612 29.3231 119.266 29.4048 118.918C29.5941 119.859 29.8695 120.785 30.1362 121.68C30.7278 123.658 31.3388 125.704 30.9967 127.629C30.9555 127.861 31.0091 128.099 31.1458 128.292C31.2826 128.485 31.4913 128.616 31.726 128.657C31.7779 128.665 31.8304 128.67 31.883 128.67C32.0942 128.67 32.2986 128.596 32.4603 128.462C32.6221 128.328 32.7307 128.142 32.7672 127.937C33.1824 125.6 32.5112 123.35 31.8615 121.172C30.8698 117.851 30.0136 114.983 33.1716 112.35C35.8176 110.143 37.416 108.027 38.3819 106.087C38.5841 108.409 38.8573 110.453 39.137 112.291C39.7823 116.506 38.7067 117.8 37.4891 119.302C36.2715 120.804 34.8668 122.502 35.1228 126.828C35.1365 127.054 35.2369 127.266 35.4036 127.421C35.5704 127.576 35.7907 127.663 36.0198 127.663H36.0736C36.3115 127.648 36.5339 127.542 36.692 127.365C36.8501 127.189 36.931 126.958 36.9169 126.724C36.7018 123.086 37.7537 121.79 38.8767 120.42C39.3266 119.9 39.7338 119.345 40.0942 118.76C40.645 123.647 40.1394 127.403 35.7918 133.433C35.6537 133.625 35.5984 133.863 35.6379 134.095C35.6774 134.326 35.8086 134.533 36.0026 134.67C36.1966 134.806 36.4375 134.861 36.6723 134.822C36.9071 134.783 37.1166 134.653 37.2546 134.462C43.1662 126.256 42.4477 121.762 41.2581 114.324C40.8622 111.853 40.3976 109.002 40.1222 105.526C41.1075 107.555 42.4477 109.076 43.7019 110.491C46.8685 114.065 49.6027 117.15 45.5842 127.461C45.4986 127.68 45.5046 127.924 45.601 128.139C45.6974 128.355 45.8763 128.523 46.0983 128.608C46.2014 128.647 46.3107 128.667 46.421 128.668C46.603 128.668 46.7808 128.613 46.9309 128.512C47.0811 128.41 47.1965 128.266 47.2621 128.098C49.3381 122.774 49.6909 119.115 49.1445 116.349C50.3793 117.938 51.1881 120.095 50.7514 124.163C50.7386 124.279 50.749 124.396 50.7821 124.508C50.8151 124.62 50.8702 124.724 50.9441 124.815C51.0181 124.906 51.1094 124.981 51.2129 125.037C51.3164 125.093 51.4301 125.128 51.5474 125.141H51.6442C51.8657 125.14 52.0793 125.059 52.244 124.913C52.4088 124.767 52.5131 124.566 52.5369 124.348C52.6837 123.09 52.6995 121.82 52.5843 120.558C53.7352 121.724 54.9936 122.81 56.0413 123.394C56.2491 123.509 56.4945 123.538 56.7239 123.475C56.9532 123.411 57.1479 123.261 57.2653 123.056C57.3235 122.955 57.3607 122.843 57.375 122.727C57.3893 122.612 57.3802 122.494 57.3485 122.382C57.3167 122.269 57.2628 122.164 57.1898 122.073C57.1169 121.981 57.0263 121.905 56.9233 121.847C55.056 120.809 52.1153 117.598 51.115 116.037C51.1009 116.014 51.0851 115.993 51.0676 115.973C50.3104 114.802 49.3832 113.929 48.4862 113.105C47.8297 112.524 47.2205 111.893 46.6641 111.218C46.6554 111.208 46.6461 111.199 46.6361 111.19C46.1241 110.54 45.582 109.915 45.0421 109.316C43.7363 107.844 42.4068 106.342 41.5119 104.274C43.42 105.923 46.3285 106.537 49.4478 106.884H49.4779C53.8793 107.362 54.5139 110.495 55.2496 114.129C55.5573 115.643 55.8756 117.216 56.5081 118.59C56.6074 118.804 56.7886 118.97 57.0119 119.052C57.2352 119.134 57.4823 119.125 57.6988 119.027C57.9153 118.929 58.0835 118.75 58.1664 118.529C58.2494 118.309 58.2402 118.065 58.1409 117.851C57.5966 116.674 57.3127 115.272 57.0115 113.789C56.8437 112.966 56.6694 112.125 56.4457 111.299C57.2029 111.685 57.9903 112.002 58.7733 112.312C60.8342 113.13 62.6133 113.835 63.3727 115.66C63.4403 115.824 63.5556 115.963 63.7039 116.061C63.8522 116.159 64.0267 116.211 64.2052 116.211C64.3211 116.211 64.4358 116.189 64.5429 116.145C64.7633 116.055 64.9388 115.883 65.0308 115.666C65.1227 115.449 65.1237 115.205 65.0334 114.987C63.9879 112.467 61.6753 111.549 59.4402 110.663C57.6547 109.956 55.9703 109.287 54.8925 107.848C54.7592 107.67 54.615 107.495 54.4623 107.328C60.1006 107.835 65.5153 108.796 67.0233 114.284C67.0738 114.471 67.1855 114.637 67.341 114.756C67.4965 114.875 67.6873 114.939 67.8838 114.94C67.9637 114.94 68.0433 114.929 68.1204 114.908C68.3499 114.846 68.5451 114.696 68.6632 114.492C68.7813 114.288 68.8127 114.045 68.7507 113.818C66.7522 106.533 59.3219 105.934 52.7671 105.403C46.0402 104.859 41.727 104.26 41.1075 99.7745H76.2499C76.5677 99.7745 76.8725 99.6498 77.0972 99.4279C77.3219 99.2059 77.4481 98.9049 77.4481 98.591C77.4481 98.2772 77.3219 97.9762 77.0972 97.7542C76.8725 97.5323 76.5677 97.4076 76.2499 97.4076V97.4204Z" fill="#213A8F"/>
<defs>
<linearGradient id="paint0_linear" x1="10.2852" y1="25.4357" x2="36.0547" y2="25.4357" gradientUnits="userSpaceOnUse">
<stop stop-color="#EC6608"/>
<stop offset="1" stop-color="#F9B000"/>
</linearGradient>
<linearGradient id="paint1_linear" x1="26.3232" y1="16.2821" x2="52.0928" y2="16.2821" gradientUnits="userSpaceOnUse">
<stop stop-color="#FFED00"/>
<stop offset="1" stop-color="#BCCF00"/>
</linearGradient>
<linearGradient id="paint2_linear" x1="26.3232" y1="35.4793" x2="52.0928" y2="35.4793" gradientUnits="userSpaceOnUse">
<stop stop-color="#EC6608"/>
<stop offset="1" stop-color="#C8D400"/>
</linearGradient>
<linearGradient id="paint3_linear" x1="1.3799" y1="34.5833" x2="20.0117" y2="34.5833" gradientUnits="userSpaceOnUse">
<stop stop-color="#E40428"/>
<stop offset="1" stop-color="#EC6608"/>
</linearGradient>
<linearGradient id="paint4_linear" x1="10.2846" y1="43.732" x2="39.2099" y2="43.732" gradientUnits="userSpaceOnUse">
<stop stop-color="#B70E0C"/>
<stop offset="1" stop-color="#C80973"/>
</linearGradient>
<linearGradient id="paint5_linear" x1="58.4033" y1="34.5755" x2="77.0372" y2="34.5755" gradientUnits="userSpaceOnUse">
<stop stop-color="#65B32E"/>
<stop offset="1" stop-color="#C8D400"/>
</linearGradient>
<linearGradient id="paint6_linear" x1="39.2041" y1="43.716" x2="68.1273" y2="43.716" gradientUnits="userSpaceOnUse">
<stop stop-color="#0081A7"/>
<stop offset="1" stop-color="#76B82A"/>
</linearGradient>
<linearGradient id="paint7_linear" x1="58.4017" y1="52.8725" x2="77.0335" y2="52.8725" gradientUnits="userSpaceOnUse">
<stop stop-color="#76B82A"/>
<stop offset="1" stop-color="#0081A7"/>
</linearGradient>
<linearGradient id="paint8_linear" x1="26.3209" y1="51.9741" x2="52.0926" y2="51.9741" gradientUnits="userSpaceOnUse">
<stop stop-color="#C80973"/>
<stop offset="1" stop-color="#007BC4"/>
</linearGradient>
<linearGradient id="paint9_linear" x1="42.3672" y1="62.0226" x2="68.1346" y2="62.0226" gradientUnits="userSpaceOnUse">
<stop stop-color="#213A8F"/>
<stop offset="1" stop-color="#009FE3"/>
</linearGradient>
<linearGradient id="paint10_linear" x1="17.4182" y1="66.9876" x2="28.9186" y2="66.9876" gradientUnits="userSpaceOnUse">
<stop stop-color="#831F82"/>
<stop offset="1" stop-color="#5C2483"/>
</linearGradient>
<linearGradient id="paint11_linear" x1="1182.99" y1="3026.55" x2="4268.63" y2="3026.55" gradientUnits="userSpaceOnUse">
<stop stop-color="#831F82"/>
<stop offset="1" stop-color="#5C2483"/>
</linearGradient>
<linearGradient id="paint12_linear" x1="42.3631" y1="25.4255" x2="68.1347" y2="25.4255" gradientUnits="userSpaceOnUse">
<stop stop-color="#C8D400"/>
<stop offset="1" stop-color="#65B32E"/>
</linearGradient>
<linearGradient id="paint13_linear" x1="17.4199" y1="9.17606" x2="36.0517" y2="9.17606" gradientUnits="userSpaceOnUse">
<stop stop-color="#FDC300"/>
<stop offset="1" stop-color="#FFD500"/>
</linearGradient>
<linearGradient id="paint14_linear" x1="1.38086" y1="18.3195" x2="20.0105" y2="18.3195" gradientUnits="userSpaceOnUse">
<stop stop-color="#EF7D00"/>
<stop offset="1" stop-color="#FFD500"/>
</linearGradient>
<linearGradient id="paint15_linear" x1="58.4017" y1="18.3089" x2="77.0314" y2="18.3089" gradientUnits="userSpaceOnUse">
<stop stop-color="#BCCF00"/>
<stop offset="1" stop-color="#FFED00"/>
</linearGradient>
<linearGradient id="paint16_linear" x1="42.3638" y1="9.16087" x2="60.9913" y2="9.16087" gradientUnits="userSpaceOnUse">
<stop stop-color="#C8D400"/>
<stop offset="1" stop-color="#A2C617"/>
</linearGradient>
<linearGradient id="paint17_linear" x1="5077.92" y1="3490.25" x2="6692.73" y2="3490.25" gradientUnits="userSpaceOnUse">
<stop stop-color="#213A8F"/>
<stop offset="1" stop-color="#009FE3"/>
</linearGradient>
<linearGradient id="paint18_linear" x1="1.38615" y1="69.1407" x2="20.0158" y2="69.1407" gradientUnits="userSpaceOnUse">
<stop stop-color="#E50071"/>
<stop offset="1" stop-color="#831F82"/>
</linearGradient>
<linearGradient id="paint19_linear" x1="-11.4908" y1="62.0244" x2="13.3279" y2="62.0244" gradientUnits="userSpaceOnUse">
<stop stop-color="#E94190"/>
<stop offset="1" stop-color="#A71680"/>
</linearGradient>
</defs>
</svg>
