<svg width="18" height="19" viewBox="0 0 18 19" fill="none" xmlns="http://www.w3.org/2000/svg">
<path fill-rule="evenodd" clip-rule="evenodd" d="M8 16.7478C8 17.3001 8.44772 17.7478 9 17.7478C9.55229 17.7478 10 17.3001 10 16.7478V10.7478H16C16.5523 10.7478 17 10.3001 17 9.7478C17 9.19552 16.5523 8.7478 16 8.7478H10V2.7478C10 2.19552 9.55228 1.7478 9 1.7478C8.44771 1.7478 8 2.19552 8 2.7478V8.7478H2C1.44772 8.7478 1 9.19552 1 9.7478C1 10.3001 1.44772 10.7478 2 10.7478H8V16.7478Z" fill="url(#paint0_linear)"/>
<defs>
<linearGradient id="paint0_linear" x1="1" y1="7.238" x2="17.0116" y2="7.30977" gradientUnits="userSpaceOnUse">
<stop stop-color="#1EA013"/>
<stop offset="1" stop-color="#06A616"/>
</linearGradient>
</defs>
</svg>
