<svg width="297" height="440" viewBox="0 0 297 440" fill="none" xmlns="http://www.w3.org/2000/svg">
<path d="M166.668 237.253V-54.7344H134.086V237.253" fill="#1C4AE5"/>
<path d="M166.668 238.506V516.557C166.668 525.64 159.376 533 150.377 533C141.378 533 134.086 525.64 134.086 516.557V238.506H166.668Z" fill="#1C4AE5"/>
<path d="M115.503 238.506L39.9419 194.908C23.6048 185.481 11.2812 164.233 11.2812 145.492V47.0154C11.2812 28.2554 23.6048 7.00767 39.9419 -2.40041L115.447 -45.9619L147.876 -26.6968L56.5617 25.9735C50.3999 29.5272 44.3701 39.9453 44.3701 47.0154V145.492C44.3701 152.562 50.4187 162.98 56.5617 166.534L147.82 219.185" fill="#1C4AE5"/>
<path d="M147.374 220.056L240.24 166.533C246.427 162.97 252.48 152.524 252.48 145.435V46.6968C252.48 39.6079 246.408 29.1621 240.24 25.5989L148.093 -27.4927L147.317 -66.0127L256.945 -2.85036C273.346 6.60149 285.718 27.9056 285.718 46.6968V145.435C285.718 164.245 273.346 185.549 256.945 194.982L146.617 258.557L147.374 220.056Z" fill="#1C4AE5"/>
<path d="M147.117 258.228L45.4689 316.794C39.2815 320.357 33.2266 330.802 33.2266 337.891V460.143C33.2266 469.238 25.7903 476.608 16.6133 476.608C7.43624 476.608 0 469.219 0 460.124V337.872C0 319.082 12.3748 297.759 28.761 288.327L147.873 219.709L147.117 258.228Z" fill="#1C4AE5"/>
<path d="M147.78 219.709L268.218 288.852C284.634 298.279 296.998 319.525 296.998 338.265V460.187C296.998 469.258 289.557 476.608 280.374 476.608C271.191 476.608 263.75 469.258 263.75 460.187V338.265C263.75 331.195 257.672 320.778 251.5 317.224L115.289 239.029L147.78 219.709Z" fill="#1C4AE5"/>
</svg>
