<svg width="40" height="40" viewBox="0 0 40 40" fill="none" xmlns="http://www.w3.org/2000/svg">
<path d="M20 13.6667C18.25 13.6667 14.75 14.6667 14.75 18.6667V22L13 23.6667H17.375M20 13.6667C24.2 13.6667 25.25 17 25.25 18.6667V22L27 23.6667H22.625M20 13.6667V12M17.375 23.6667V24.5C17.375 25.3333 17.9 27 20 27C22.1 27 22.625 25.3333 22.625 24.5V23.6667M17.375 23.6667H22.625" stroke="black" stroke-width="2" stroke-linecap="round" stroke-linejoin="round"/>
<path d="M20 39C9.50659 39 1 30.4934 1 20H-1C-1 31.598 8.40202 41 20 41V39ZM39 20C39 30.4934 30.4934 39 20 39V41C31.598 41 41 31.598 41 20H39ZM20 1C30.4934 1 39 9.50659 39 20H41C41 8.40202 31.598 -1 20 -1V1ZM20 -1C8.40202 -1 -1 8.40202 -1 20H1C1 9.50659 9.50659 1 20 1V-1Z" fill="#EFEFF1"/>
</svg>
