<svg width="492" height="582" viewBox="0 0 492 582" fill="none" xmlns="http://www.w3.org/2000/svg">
<path d="M478.883 230.105L439.482 207.218L473.854 187.245C481.298 182.917 486.91 173.172 486.91 164.575V119.401C486.91 110.795 481.298 101.05 473.854 96.7307L439.482 76.7571L488.184 48.4611C491.781 46.3721 493.005 41.7616 490.915 38.1663C488.825 34.5711 484.212 33.3477 480.615 35.4366L430.947 64.2902V7.53173C430.947 3.37055 427.575 0 423.412 0C419.248 0 415.876 3.37055 415.876 7.53173V63.0418L371.213 37.0927C369.664 35.2535 367.349 34.3047 365.026 34.4379C362.703 34.3047 360.388 35.2535 358.839 37.0927L314.176 63.0418V7.53173C314.176 3.37055 310.803 0 306.64 0C302.477 0 299.105 3.37055 299.105 7.53173V64.2985L251.743 36.7848C250.228 35.1869 248.113 34.3547 245.965 34.4379C243.825 34.3547 241.701 35.1869 240.186 36.7848L192.825 64.2985V7.53173C192.825 3.37055 189.452 0 185.289 0C181.126 0 177.754 3.37055 177.754 7.53173V63.0418L133.09 37.0927C131.541 35.2535 129.226 34.3047 126.903 34.4379C124.58 34.3047 122.265 35.2535 120.717 37.0927L76.0532 63.0418V7.53173C76.0532 3.37055 72.6809 0 68.5176 0C64.3544 0 60.9821 3.37055 60.9821 7.53173V64.2985L11.3143 35.4366C7.71722 33.3477 3.10431 34.5627 1.01435 38.1663C-1.07561 41.7616 0.148391 46.3721 3.74546 48.4611L52.4474 76.7571L18.0754 96.7307C10.6315 101.058 5.01942 110.804 5.01942 119.401V164.575C5.01942 173.18 10.6315 182.925 18.0754 187.245L52.4474 207.218L13.0462 230.105C5.6106 234.424 -0.00148714 244.178 -0.00148714 252.775V272.665V308.709V328.6C-0.00148714 337.197 5.6106 346.951 13.0462 351.27L52.4474 374.156L18.0754 394.13C10.6315 398.458 5.01942 408.203 5.01942 416.8V461.974C5.01942 470.579 10.6315 480.325 18.0754 484.644L52.4474 504.618L3.74546 532.914C0.148391 535.002 -1.07561 539.613 1.01435 543.208C3.10431 546.804 7.71722 548.027 11.3143 545.938L60.9821 517.084V573.851C60.9821 578.012 64.3544 581.383 68.5176 581.383C72.6809 581.383 76.0532 578.012 76.0532 573.851V518.341L120.717 544.282C122.265 546.121 124.58 547.07 126.903 546.937C129.226 547.07 131.541 546.121 133.09 544.282L177.754 518.333V573.843C177.754 578.004 181.126 581.375 185.289 581.375C189.452 581.375 192.825 578.004 192.825 573.843V517.076L240.186 544.59C241.701 546.188 243.816 547.02 245.965 546.937C248.105 547.02 250.228 546.188 251.743 544.59L299.105 517.076V573.843C299.105 578.004 302.477 581.375 306.64 581.375C310.803 581.375 314.176 578.004 314.176 573.843V518.333L358.839 544.282C360.388 546.121 362.703 547.07 365.026 546.937C367.349 547.07 369.664 546.121 371.213 544.282L415.876 518.333V573.843C415.876 578.004 419.248 581.375 423.412 581.375C427.575 581.375 430.947 578.004 430.947 573.843V517.076L480.615 545.93C484.212 548.019 488.825 546.795 490.915 543.2C493.005 539.605 491.781 534.994 488.184 532.905L439.482 504.609L473.854 484.636C481.298 480.308 486.91 470.562 486.91 461.965V416.792C486.91 408.186 481.298 398.441 473.854 394.122L439.482 374.148L478.883 351.262C486.327 346.942 491.931 337.188 491.931 328.591V308.701V272.657V252.766C491.931 244.178 486.319 234.424 478.883 230.105ZM365.026 530.458L320.554 504.618L354.926 484.644C359.081 482.23 362.669 478.119 365.026 473.459C367.382 478.119 370.963 482.23 375.126 484.644L409.498 504.618L365.026 530.458ZM245.965 530.533L201.359 504.618L235.731 484.644C239.97 482.18 243.608 477.961 245.965 473.192C248.321 477.961 251.96 482.18 256.198 484.644L290.57 504.618L245.965 530.533ZM126.903 530.458L82.4313 504.618L116.803 484.644C120.958 482.23 124.547 478.119 126.903 473.459C129.26 478.119 132.84 482.23 137.003 484.644L171.375 504.618L126.903 530.458ZM126.903 50.9161L171.375 76.7571L137.003 96.7307C132.849 99.1442 129.26 103.255 126.903 107.916C124.547 103.255 120.967 99.1442 116.803 96.7307L82.4313 76.7571L126.903 50.9161ZM245.965 50.8413L290.57 76.7571L256.198 96.7307C251.96 99.1941 248.321 103.414 245.965 108.182C243.608 103.414 239.97 99.1941 235.731 96.7307L201.359 76.7571L245.965 50.8413ZM365.026 50.9161L409.498 76.7571L375.126 96.7307C370.971 99.1442 367.382 103.255 365.026 107.916C362.669 103.255 359.089 99.1442 354.926 96.7307L320.554 76.7571L365.026 50.9161ZM365.026 405.315C362.669 400.655 359.089 396.543 354.926 394.13L320.554 374.165L359.955 351.278C361.779 350.221 363.486 348.831 365.034 347.225C366.583 348.84 368.29 350.221 370.113 351.278L409.506 374.165L375.134 394.13C370.971 396.543 367.382 400.655 365.026 405.315ZM245.965 405.582C243.608 400.813 239.97 396.593 235.731 394.13L201.359 374.156L240.761 351.27C242.634 350.18 244.391 348.748 245.965 347.084C247.547 348.756 249.304 350.188 251.169 351.27L290.57 374.156L256.198 394.13C251.96 396.593 248.321 400.813 245.965 405.582ZM126.903 405.315C124.547 400.655 120.967 396.543 116.803 394.13L82.4313 374.156L121.824 351.27C123.648 350.213 125.355 348.823 126.903 347.217C128.452 348.831 130.159 350.213 131.983 351.27L171.375 374.156L137.003 394.122C132.849 396.543 129.26 400.655 126.903 405.315ZM126.903 176.059C129.26 180.72 132.84 184.831 137.003 187.245L171.375 207.218L131.974 230.105C130.151 231.162 128.444 232.551 126.895 234.158C125.346 232.543 123.639 231.162 121.816 230.105L82.4313 207.218L116.803 187.253C120.967 184.831 124.547 180.72 126.903 176.059ZM245.965 175.793C248.321 180.562 251.96 184.781 256.198 187.245L290.57 207.218L251.169 230.105C249.295 231.195 247.538 232.626 245.965 234.291C244.383 232.618 242.626 231.187 240.761 230.105L201.359 207.218L235.731 187.245C239.97 184.781 243.617 180.562 245.965 175.793ZM365.026 176.059C367.382 180.72 370.963 184.831 375.126 187.245L409.498 207.21L370.105 230.096C368.282 231.153 366.575 232.543 365.026 234.149C363.477 232.535 361.77 231.153 359.947 230.096L320.546 207.21L354.917 187.245C359.089 184.831 362.669 180.72 365.026 176.059ZM377.141 164.575V119.401C377.141 116.155 379.897 111.378 382.695 109.747L415.876 90.464V193.503L382.695 174.22C379.897 172.597 377.141 167.812 377.141 164.575ZM134.88 328.6V308.709V272.665V252.775C134.88 251.743 134.797 250.703 134.639 249.654C135.613 247.007 137.57 244.278 139.551 243.129L177.762 220.933V246.858V334.534V360.458L139.551 338.262C137.57 337.105 135.613 334.384 134.639 331.737C134.797 330.672 134.88 329.632 134.88 328.6ZM192.825 361.698V334.525V246.849V219.677L233.183 243.121C235.307 244.353 237.405 247.399 238.288 250.22C238.188 251.077 238.113 251.934 238.113 252.775V272.665V308.709V328.6C238.113 329.44 238.179 330.298 238.288 331.155C237.397 333.968 235.307 337.014 233.183 338.254L192.825 361.698ZM253.808 328.6V308.709V272.665V252.775C253.808 251.934 253.742 251.077 253.633 250.22C254.524 247.407 256.614 244.361 258.738 243.121L299.096 219.677V246.849V334.525V361.698L258.738 338.254C256.614 337.022 254.516 333.976 253.633 331.155C253.742 330.298 253.808 329.44 253.808 328.6ZM314.176 334.525V246.849V220.925L352.386 243.121C354.368 244.278 356.325 246.999 357.299 249.646C357.141 250.694 357.057 251.743 357.057 252.766V272.657V308.701V328.591C357.057 329.623 357.141 330.664 357.299 331.721C356.325 334.367 354.368 337.097 352.386 338.245L314.176 360.441V334.525ZM352.911 164.575C352.911 167.82 350.155 172.597 347.357 174.228L314.176 193.511V90.464L347.357 109.747C350.163 111.378 352.911 116.155 352.911 119.401V164.575ZM299.105 194.751L263.767 174.22C260.961 172.589 258.213 167.812 258.213 164.566V119.392C258.213 116.147 260.969 111.37 263.767 109.739L299.105 89.2073V194.751ZM233.725 164.575C233.725 167.82 230.969 172.597 228.171 174.228L192.833 194.76V89.2156L228.171 109.747C230.977 111.378 233.725 116.155 233.725 119.401V164.575ZM177.762 193.503L144.581 174.22C141.775 172.589 139.027 167.812 139.027 164.566V119.392C139.027 116.147 141.783 111.37 144.581 109.739L177.762 90.4557V193.503ZM114.788 164.575C114.788 167.82 112.032 172.597 109.234 174.228L76.0532 193.511V90.464L109.234 109.747C112.04 111.378 114.788 116.155 114.788 119.401V164.575ZM76.0532 334.525V246.849V220.925L114.264 243.121C116.245 244.278 118.202 246.999 119.176 249.646C119.018 250.694 118.935 251.743 118.935 252.766V272.657V308.701V328.591C118.935 329.623 119.018 330.664 119.176 331.721C118.202 334.367 116.245 337.097 114.264 338.245L76.0532 360.441V334.525ZM114.788 416.8V461.974C114.788 465.219 112.032 469.997 109.234 471.628L76.0532 490.911V387.872L109.234 407.154C112.04 408.777 114.788 413.563 114.788 416.8ZM139.019 416.8C139.019 413.554 141.775 408.777 144.572 407.146L177.754 387.863V490.902L144.572 471.619C141.766 469.988 139.019 465.211 139.019 461.965V416.8ZM192.825 386.623L228.162 407.154C230.969 408.786 233.716 413.563 233.716 416.808V461.982C233.716 465.228 230.96 470.005 228.162 471.636L192.825 492.167V386.623ZM258.213 416.8C258.213 413.554 260.969 408.777 263.767 407.146L299.105 386.615V492.151L263.767 471.619C260.961 469.988 258.213 465.211 258.213 461.965V416.8ZM314.176 387.872L347.357 407.154C350.163 408.786 352.911 413.563 352.911 416.808V461.982C352.911 465.228 350.155 470.005 347.357 471.636L314.176 490.919V387.872ZM377.141 416.8C377.141 413.554 379.897 408.777 382.695 407.146L415.876 387.863V490.902L382.695 471.619C379.889 469.988 377.141 465.211 377.141 461.965V416.8ZM415.884 246.849V334.525V360.449L377.674 338.254C375.692 337.097 373.735 334.375 372.761 331.729C372.919 330.68 373.003 329.632 373.003 328.6V308.709V272.665V252.775C373.003 251.743 372.919 250.703 372.761 249.654C373.735 247.007 375.692 244.278 377.674 243.129L415.884 220.933V246.849ZM471.847 119.392V164.566C471.847 167.812 469.091 172.589 466.293 174.22L430.956 194.751V89.2156L466.285 109.747C469.091 111.37 471.847 116.155 471.847 119.392ZM20.0905 164.575V119.401C20.0905 116.155 22.8466 111.378 25.6443 109.747L60.9821 89.2156V194.751L25.6443 174.228C22.8382 172.597 20.0905 167.812 20.0905 164.575ZM15.0696 328.6V308.709V272.665V252.775C15.0696 249.529 17.8173 244.752 20.6234 243.121L60.9821 219.677V246.849V334.525V361.698L20.6234 338.254C17.8173 336.622 15.0696 331.837 15.0696 328.6ZM20.0905 461.982V416.808C20.0905 413.563 22.8466 408.786 25.6443 407.154L60.9821 386.623V492.159L25.6443 471.628C22.8382 470.005 20.0905 465.219 20.0905 461.982ZM471.847 416.8V461.974C471.847 465.219 469.091 469.997 466.293 471.628L430.956 492.159V386.623L466.285 407.154C469.091 408.777 471.847 413.563 471.847 416.8ZM476.868 328.6C476.868 331.845 474.12 336.622 471.314 338.254L430.956 361.698V334.525V246.849V219.677L471.314 243.121C474.12 244.752 476.868 249.529 476.868 252.775V272.665V308.709V328.6Z" fill="url(#paint0_linear)"/>
<defs>
<linearGradient id="paint0_linear" x1="245.965" y1="0" x2="245.965" y2="581.383" gradientUnits="userSpaceOnUse">
<stop stop-color="#3862ED"/>
<stop offset="0.864583" stop-color="#335DEA" stop-opacity="0.479167"/>
<stop offset="1" stop-color="#2F59E7" stop-opacity="0"/>
</linearGradient>
</defs>
</svg>
