<svg width="18" height="18" viewBox="0 0 18 18" fill="none" xmlns="http://www.w3.org/2000/svg">
<path fill-rule="evenodd" clip-rule="evenodd" d="M4.24011 11.5293C3.22224 10.5673 2.59848 9.51008 2.33242 9C2.59848 8.48991 3.22224 7.43268 4.24011 6.47066C5.35591 5.41609 6.91662 4.5 8.99854 4.5C11.0804 4.5 12.6412 5.41609 13.757 6.47066C14.7748 7.43268 15.3986 8.48991 15.6647 9C15.3986 9.51008 14.7748 10.5673 13.757 11.5293C12.6412 12.5839 11.0804 13.5 8.99854 13.5C6.91662 13.5 5.35591 12.5839 4.24011 11.5293ZM8.99854 3C6.4323 3 4.52066 4.14156 3.20978 5.38052C1.9068 6.612 1.16917 7.96333 0.915763 8.47703C0.752037 8.80892 0.752038 9.19108 0.915763 9.52297C1.16917 10.0367 1.9068 11.388 3.20978 12.6195C4.52066 13.8584 6.4323 15 8.99854 15C11.5648 15 13.4764 13.8584 14.7873 12.6195C16.0903 11.388 16.8279 10.0367 17.0813 9.52297C17.245 9.19108 17.245 8.80892 17.0813 8.47703C16.8279 7.96333 16.0903 6.612 14.7873 5.38052C13.4764 4.14156 11.5648 3 8.99854 3ZM7.49854 9C7.49854 8.17157 8.17011 7.5 8.99854 7.5C9.82696 7.5 10.4985 8.17157 10.4985 9C10.4985 9.82843 9.82696 10.5 8.99854 10.5C8.17011 10.5 7.49854 9.82843 7.49854 9ZM8.99854 6C7.34168 6 5.99854 7.34315 5.99854 9C5.99854 10.6569 7.34168 12 8.99854 12C10.6554 12 11.9985 10.6569 11.9985 9C11.9985 7.34315 10.6554 6 8.99854 6Z" fill="black"/>
</svg>
