<svg width="18" height="18" viewBox="0 0 18 18" fill="none" xmlns="http://www.w3.org/2000/svg">
<path fill-rule="evenodd" clip-rule="evenodd" d="M2.78215 1.71967C2.48925 1.42678 2.01438 1.42678 1.72149 1.71967C1.42859 2.01256 1.42859 2.48744 1.72149 2.78033L15.2215 16.2803C15.5144 16.5732 15.9893 16.5732 16.2821 16.2803C16.575 15.9874 16.575 15.5126 16.2821 15.2197L14.1986 13.1361C15.8781 11.7862 16.7984 10.1028 17.0838 9.52449C17.2465 9.19502 17.2495 8.81139 17.0846 8.47703C16.8312 7.96333 16.0935 6.612 14.7906 5.38052C13.4797 4.14156 11.5681 3 9.00181 3C7.46539 3 6.15769 3.41023 5.07262 4.01015L2.78215 1.71967ZM6.18657 5.1241L7.47794 6.41547C7.92461 6.15168 8.44597 6 9.00182 6C10.6587 6 12.0018 7.34315 12.0018 9C12.0018 9.55585 11.8501 10.0772 11.5863 10.5239L13.1305 12.068C14.5212 10.997 15.3475 9.61424 15.6679 8.99999C15.4019 8.48991 14.7781 7.43268 13.7602 6.47066C12.6444 5.41609 11.0837 4.5 9.00181 4.5C7.92399 4.5 6.99024 4.74478 6.18657 5.1241ZM10.4511 9.38867C10.4842 9.26481 10.5018 9.13457 10.5018 9C10.5018 8.17157 9.83024 7.5 9.00182 7.5C8.86725 7.5 8.737 7.5176 8.61315 7.55068L10.4511 9.38867ZM3.48893 6.12057C3.80389 6.3896 3.84112 6.86301 3.5721 7.17797C2.94289 7.9146 2.53626 8.61547 2.33569 9C2.60176 9.51008 3.22552 10.5673 4.24339 11.5293C5.35919 12.5839 6.9199 13.5 9.00181 13.5C9.48127 13.5 9.93056 13.4516 10.3512 13.3654C10.757 13.2822 11.1534 13.5437 11.2365 13.9495C11.3197 14.3553 11.0582 14.7516 10.6524 14.8348C10.1333 14.9412 9.58307 15 9.00181 15C6.43558 15 4.52394 13.8584 3.21306 12.6195C1.91008 11.388 1.17245 10.0367 0.919043 9.52297C0.752978 9.18634 0.758887 8.80133 0.920488 8.4741C1.12056 8.06895 1.61189 7.16332 2.43153 6.20374C2.70056 5.88878 3.17397 5.85155 3.48893 6.12057Z" fill="black"/>
</svg>
