<svg width="17" height="16" viewBox="0 0 17 16" fill="none" xmlns="http://www.w3.org/2000/svg">
<path fill-rule="evenodd" clip-rule="evenodd" d="M14.1128 8.00003C14.1128 11.099 11.6007 13.6111 8.50174 13.6111C5.4028 13.6111 2.89062 11.099 2.89062 8.00003C2.89062 4.9011 5.4028 2.38892 8.50174 2.38892C11.6007 2.38892 14.1128 4.9011 14.1128 8.00003ZM15.6128 8.00003C15.6128 11.9274 12.4291 15.1111 8.50174 15.1111C4.57438 15.1111 1.39062 11.9274 1.39062 8.00003C1.39062 4.07267 4.57438 0.888916 8.50174 0.888916C12.4291 0.888916 15.6128 4.07267 15.6128 8.00003ZM9.25174 4.44447C9.25174 4.03026 8.91595 3.69447 8.50174 3.69447C8.08752 3.69447 7.75174 4.03026 7.75174 4.44447V8.20516C7.75174 8.54762 7.98372 8.84659 8.31545 8.93165L10.9821 9.61541C11.3834 9.71829 11.792 9.47643 11.8949 9.0752C11.9978 8.67396 11.7559 8.2653 11.3547 8.16242L9.25174 7.6232V4.44447Z" fill="black"/>
</svg>
