<svg width="19" height="18" viewBox="0 0 19 18" fill="none" xmlns="http://www.w3.org/2000/svg">
<path fill-rule="evenodd" clip-rule="evenodd" d="M14.7819 15.6866C15.1758 16.0737 15.8144 16.0737 16.2083 15.6866C16.6022 15.2995 16.6022 14.6719 16.2083 14.2848L10.8308 8.9963L16.2012 3.71237C16.5951 3.32517 16.5951 2.69739 16.2012 2.31019C15.8074 1.92299 15.1689 1.92299 14.7751 2.31019L9.40431 7.59446L4.00696 2.29033C3.61305 1.90322 2.9744 1.90322 2.58048 2.29033C2.18657 2.67744 2.18657 3.30506 2.58048 3.69217L7.97817 8.99663L2.57661 14.3074C2.1828 14.6946 2.1828 15.3224 2.57661 15.7096C2.97043 16.0968 3.60894 16.0968 4.00276 15.7096L9.40466 10.3985L14.7819 15.6866Z" fill="white"/>
</svg>
