<svg width="18" height="18" viewBox="0 0 18 18" fill="none" xmlns="http://www.w3.org/2000/svg">
<path fill-rule="evenodd" clip-rule="evenodd" d="M14.2786 15.4646C14.6725 15.8517 15.3111 15.8517 15.705 15.4646C16.0989 15.0775 16.0989 14.4498 15.705 14.0627L10.5495 8.9963L15.6979 3.93442C16.0918 3.54722 16.0918 2.91944 15.6979 2.53224C15.3041 2.14504 14.6656 2.14504 14.2718 2.53224L9.12306 7.59446L3.72571 2.29033C3.3318 1.90322 2.69315 1.90322 2.29923 2.29033C1.90532 2.67744 1.90532 3.30506 2.29923 3.69217L7.69692 8.99663L2.29536 14.3074C1.90155 14.6946 1.90155 15.3224 2.29536 15.7096C2.68918 16.0968 3.32769 16.0968 3.72151 15.7096L9.12341 10.3985L14.2786 15.4646Z" fill="black"/>
</svg>
