<svg width="18" height="18" viewBox="0 0 18 18" fill="none" xmlns="http://www.w3.org/2000/svg">
<path fill-rule="evenodd" clip-rule="evenodd" d="M4.875 14.25C4.875 15.0784 5.54657 15.75 6.375 15.75C7.20343 15.75 7.875 15.0784 7.875 14.25C7.875 13.4216 7.20343 12.75 6.375 12.75C5.54657 12.75 4.875 13.4216 4.875 14.25ZM4.875 9C4.875 9.82843 5.54657 10.5 6.375 10.5C7.20343 10.5 7.875 9.82843 7.875 9C7.875 8.17157 7.20343 7.5 6.375 7.5C5.54657 7.5 4.875 8.17157 4.875 9ZM6.375 5.25C5.54657 5.25 4.875 4.57843 4.875 3.75C4.875 2.92157 5.54657 2.25 6.375 2.25C7.20343 2.25 7.875 2.92157 7.875 3.75C7.875 4.57843 7.20343 5.25 6.375 5.25Z" fill="#595959"/>
<path fill-rule="evenodd" clip-rule="evenodd" d="M10.125 14.25C10.125 15.0784 10.7966 15.75 11.625 15.75C12.4534 15.75 13.125 15.0784 13.125 14.25C13.125 13.4216 12.4534 12.75 11.625 12.75C10.7966 12.75 10.125 13.4216 10.125 14.25ZM10.125 9C10.125 9.82843 10.7966 10.5 11.625 10.5C12.4534 10.5 13.125 9.82843 13.125 9C13.125 8.17157 12.4534 7.5 11.625 7.5C10.7966 7.5 10.125 8.17157 10.125 9ZM11.625 5.25C10.7966 5.25 10.125 4.57843 10.125 3.75C10.125 2.92157 10.7966 2.25 11.625 2.25C12.4534 2.25 13.125 2.92157 13.125 3.75C13.125 4.57843 12.4534 5.25 11.625 5.25Z" fill="#595959"/>
</svg>
