<svg width="19" height="18" viewBox="0 0 19 18" fill="none" xmlns="http://www.w3.org/2000/svg">
<path fill-rule="evenodd" clip-rule="evenodd" d="M11.8967 13.2755C12.187 13.5711 12.6618 13.5753 12.9573 13.2851L16.7755 9.53509C16.9191 9.39406 17 9.20125 17 9C17 8.79875 16.9191 8.60593 16.7755 8.46491L12.9573 4.71491C12.6618 4.42467 12.187 4.42895 11.8967 4.72447C11.6065 5.01999 11.6108 5.49484 11.9063 5.78509L14.416 8.25L2.75 8.25C2.33579 8.25 2 8.58579 2 9C2 9.41421 2.33579 9.75 2.75 9.75L14.416 9.75L11.9063 12.2149C11.6108 12.5052 11.6065 12.98 11.8967 13.2755Z" fill="#009B27"/>
</svg>
