<svg width="20" height="20" viewBox="0 0 20 20" fill="none" xmlns="http://www.w3.org/2000/svg">
<path fill-rule="evenodd" clip-rule="evenodd" d="M10 20C15.5228 20 20 15.5228 20 10C20 4.47715 15.5228 0 10 0C4.47715 0 0 4.47715 0 10C0 15.5228 4.47715 20 10 20ZM8.16667 14.5833C8.40988 14.5833 8.52103 14.4751 8.65536 14.3443L8.66667 14.3333L9.8678 13.1654L12.3667 15.0116C12.8265 15.2653 13.1585 15.134 13.273 14.5846L14.9134 6.85438C15.0814 6.18103 14.6567 5.87563 14.2168 6.07536L4.5843 9.78961C3.92679 10.0533 3.93062 10.4202 4.46445 10.5836L6.93637 11.3551L12.6591 7.74472C12.9293 7.58089 13.1772 7.66897 12.9737 7.84958L8.3369 12.034L8.33683 12.0339L8.33683 12.034L8.33667 12.0342L8.33681 12.0343L8.16667 14.5833Z" fill="#9A9A9A"/>
</svg>
