<svg width="24" height="24" viewBox="0 0 24 24" fill="none" xmlns="http://www.w3.org/2000/svg">
<path fill-rule="evenodd" clip-rule="evenodd" d="M6 22L18 22C19.6569 22 21 20.6569 21 19V12V8L21 4.99999C21 3.34314 19.6568 2 18 2H15.5H12H6C4.34315 2 3 3.34314 3 5V19C3 20.6569 4.34315 22 6 22ZM19 19C19 19.5523 18.5523 20 18 20L6 20C5.44772 20 5 19.5523 5 19L5 5C5 4.44772 5.44771 4 6 4L12 4L15.5 4L18 4C18.5523 4 19 4.44771 19 5L19 8V12V19ZM9.00001 6C7.89544 6 7.00001 6.89543 7.00001 8V9C7.00001 10.1046 7.89544 11 9.00001 11H15C16.1046 11 17 10.1046 17 9V8C17 6.89543 16.1046 6 15 6H9.00001ZM9.00001 8H15V9H9.00001V8ZM7.00001 14C7.00001 13.4477 7.44772 13 8.00001 13H16C16.5523 13 17 13.4477 17 14C17 14.5523 16.5523 15 16 15H8.00001C7.44772 15 7.00001 14.5523 7.00001 14ZM8.00001 16C7.44772 16 7.00001 16.4477 7.00001 17C7.00001 17.5523 7.44772 18 8.00001 18H16C16.5523 18 17 17.5523 17 17C17 16.4477 16.5523 16 16 16H8.00001Z" fill="#08A730"/>
</svg>
